<svg width="348" height="402" viewBox="0 0 348 402" fill="none" xmlns="http://www.w3.org/2000/svg">
<mask id="path-1-inside-1_3_151" fill="white">
<path fill-rule="evenodd" clip-rule="evenodd" d="M348 10C348 4.47715 343.523 0 338 0H80C74.4772 0 70 4.47715 70 10V191C70 196.523 65.5228 201 60 201H10C4.47715 201 0 205.477 0 211V260C0 265.523 4.47715 270 10 270H60C65.5228 270 70 274.477 70 280V392C70 397.523 74.4772 402 80 402H338C343.523 402 348 397.523 348 392V10Z"/>
</mask>
<path fill-rule="evenodd" clip-rule="evenodd" d="M348 10C348 4.47715 343.523 0 338 0H80C74.4772 0 70 4.47715 70 10V191C70 196.523 65.5228 201 60 201H10C4.47715 201 0 205.477 0 211V260C0 265.523 4.47715 270 10 270H60C65.5228 270 70 274.477 70 280V392C70 397.523 74.4772 402 80 402H338C343.523 402 348 397.523 348 392V10Z" fill="#F3E5F5"/>
<path d="M338 401H337.008V403H338V401ZM335.023 401H333.038V403H335.023V401ZM331.054 401H329.069V403H331.054V401ZM327.085 401H325.1V403H327.085V401ZM323.115 401H321.131V403H323.115V401ZM319.146 401H317.162V403H319.146V401ZM315.177 401H313.192V403H315.177V401ZM311.208 401H309.223V403H311.208V401ZM307.238 401H305.254V403H307.238V401ZM303.269 401H301.285V403H303.269V401ZM299.3 401H297.315V403H299.3V401ZM295.331 401H293.346V403H295.331V401ZM291.362 401H289.377V403H291.362V401ZM287.392 401H285.408V403H287.392V401ZM283.423 401H281.438V403H283.423V401ZM279.454 401H277.469V403H279.454V401ZM275.485 401H273.5V403H275.485V401ZM271.515 401H269.531V403H271.515V401ZM267.546 401H265.562V403H267.546V401ZM263.577 401H261.592V403H263.577V401ZM259.608 401H257.623V403H259.608V401ZM255.638 401H253.654V403H255.638V401ZM251.669 401H249.685V403H251.669V401ZM247.7 401H245.715V403H247.7V401ZM243.731 401H241.746V403H243.731V401ZM239.761 401H237.777V403H239.761V401ZM235.792 401H233.808V403H235.792V401ZM231.823 401H229.838V403H231.823V401ZM227.854 401H225.869V403H227.854V401ZM223.885 401H221.9V403H223.885V401ZM219.915 401H217.931V403H219.915V401ZM215.946 401H213.961V403H215.946V401ZM211.977 401H209.992V403H211.977V401ZM208.008 401H206.023V403H208.008V401ZM204.038 401H202.054V403H204.038V401ZM200.069 401H198.084V403H200.069V401ZM196.1 401H194.115V403H196.1V401ZM192.131 401H190.146V403H192.131V401ZM188.161 401H186.177V403H188.161V401ZM184.192 401H182.208V403H184.192V401ZM180.223 401H178.238V403H180.223V401ZM176.254 401H174.269V403H176.254V401ZM172.284 401H170.3V403H172.284V401ZM168.315 401H166.331V403H168.315V401ZM164.346 401H162.361V403H164.346V401ZM160.377 401H158.392V403H160.377V401ZM156.407 401H154.423V403H156.407V401ZM152.438 401H150.454V403H152.438V401ZM148.469 401H146.484V403H148.469V401ZM144.5 401H142.515V403H144.5V401ZM140.531 401H138.546V403H140.531V401ZM136.561 401H134.577V403H136.561V401ZM132.592 401H130.607V403H132.592V401ZM128.623 401H126.638V403H128.623V401ZM124.654 401H122.669V403H124.654V401ZM120.684 401H118.7V403H120.684V401ZM116.715 401H114.73V403H116.715V401ZM112.746 401H110.761V403H112.746V401ZM108.777 401H106.792V403H108.777V401ZM104.807 401H102.823V403H104.807V401ZM100.838 401H98.8535V403H100.838V401ZM96.8689 401H94.8843V403H96.8689V401ZM92.8997 401H90.915V403H92.8997V401ZM88.9304 401H86.9458V403H88.9304V401ZM84.9612 401H82.9766V403H84.9612V401ZM80.9919 401H80V403H80.9919V401ZM80 401C79.7015 401 79.4068 400.986 79.1163 400.957L78.9226 402.948C79.2773 402.982 79.6368 403 80 403V401ZM77.3861 400.615C76.8175 400.443 76.2725 400.215 75.7574 399.939L74.813 401.703C75.4431 402.04 76.11 402.318 76.8062 402.529L77.3861 400.615ZM74.2908 398.958C73.8351 398.583 73.4167 398.165 73.0423 397.709L71.4969 398.979C71.9541 399.535 72.4648 400.046 73.0211 400.503L74.2908 398.958ZM72.0605 396.243C71.7846 395.727 71.5575 395.183 71.3852 394.614L69.4711 395.194C69.682 395.89 69.96 396.557 70.2975 397.187L72.0605 396.243ZM71.0428 392.884C71.0145 392.593 71 392.298 71 392H69C69 392.363 69.0176 392.723 69.0522 393.077L71.0428 392.884ZM71 392V391H69V392H71ZM71 389V387H69V389H71ZM71 385V383H69V385H71ZM71 381V379H69V381H71ZM71 377V375H69V377H71ZM71 373V371H69V373H71ZM71 369V367H69V369H71ZM71 365V363H69V365H71ZM71 361V359H69V361H71ZM71 357V355H69V357H71ZM71 353V351H69V353H71ZM71 349V347H69V349H71ZM71 345V343H69V345H71ZM71 341V339H69V341H71ZM71 337V335H69V337H71ZM71 333V331H69V333H71ZM71 329V327H69V329H71ZM71 325V323H69V325H71ZM71 321V319H69V321H71ZM71 317V315H69V317H71ZM71 313V311H69V313H71ZM71 309V307H69V309H71ZM71 305V303H69V305H71ZM71 301V299H69V301H71ZM71 297V295H69V297H71ZM71 293V291H69V293H71ZM71 289V287H69V289H71ZM71 285V283H69V285H71ZM71 281V280H69V281H71ZM71 280C71 279.637 70.9824 279.277 70.9478 278.923L68.9572 279.116C68.9855 279.407 69 279.702 69 280H71ZM70.5289 276.806C70.318 276.11 70.04 275.443 69.7025 274.813L67.9395 275.757C68.2154 276.273 68.4425 276.817 68.6148 277.386L70.5289 276.806ZM68.5031 273.021C68.0459 272.465 67.5352 271.954 66.9789 271.497L65.7092 273.042C66.1649 273.417 66.5833 273.835 66.9577 274.291L68.5031 273.021ZM65.187 270.297C64.5569 269.96 63.89 269.682 63.1938 269.471L62.6139 271.385C63.1825 271.557 63.7275 271.785 64.2426 272.061L65.187 270.297ZM61.0774 269.052C60.7227 269.018 60.3632 269 60 269V271C60.2985 271 60.5932 271.014 60.8837 271.043L61.0774 269.052ZM60 269H59.0385V271H60V269ZM57.1154 269H55.1923V271H57.1154V269ZM53.2692 269H51.3462V271H53.2692V269ZM49.4231 269H47.5V271H49.4231V269ZM45.5769 269H43.6538V271H45.5769V269ZM41.7308 269H39.8077V271H41.7308V269ZM37.8846 269H35.9615V271H37.8846V269ZM34.0385 269H32.1154V271H34.0385V269ZM30.1923 269H28.2692V271H30.1923V269ZM26.3462 269H24.4231V271H26.3462V269ZM22.5 269H20.5769V271H22.5V269ZM18.6538 269H16.7308V271H18.6538V269ZM14.8077 269H12.8846V271H14.8077V269ZM10.9615 269H10V271H10.9615V269ZM10 269C9.70155 269 9.40678 268.986 9.11631 268.957L8.92259 270.948C9.27733 270.982 9.63676 271 10 271V269ZM7.38612 268.615C6.81749 268.443 6.27253 268.215 5.75735 267.939L4.81304 269.703C5.44307 270.04 6.10998 270.318 6.80621 270.529L7.38612 268.615ZM4.2908 266.958C3.83505 266.583 3.4167 266.165 3.04225 265.709L1.49694 266.979C1.95408 267.535 2.46476 268.046 3.02114 268.503L4.2908 266.958ZM2.06053 264.243C1.78459 263.727 1.55745 263.183 1.38517 262.614L-0.528908 263.194C-0.31797 263.89 -0.039961 264.557 0.297495 265.187L2.06053 264.243ZM1.04276 260.884C1.01449 260.593 1 260.298 1 260H-1C-1 260.363 -0.982359 260.723 -0.947834 261.077L1.04276 260.884ZM1 260V258.979H-1V260H1ZM1 256.938V254.896H-1V256.938H1ZM1 252.854V250.812H-1V252.854H1ZM1 248.771V246.729H-1V248.771H1ZM1 244.687V242.646H-1V244.687H1ZM1 240.604V238.563H-1V240.604H1ZM1 236.521V234.479H-1V236.521H1ZM1 232.438V230.396H-1V232.438H1ZM1 228.354V226.313H-1V228.354H1ZM1 224.271V222.229H-1V224.271H1ZM1 220.188V218.146H-1V220.188H1ZM1 216.104V214.062H-1V216.104H1ZM1 212.021V211H-1V212.021H1ZM1 211C1 210.702 1.01449 210.407 1.04276 210.116L-0.947834 209.923C-0.982359 210.277 -1 210.637 -1 211H1ZM1.38517 208.386C1.55745 207.817 1.78459 207.273 2.06053 206.757L0.297495 205.813C-0.0399604 206.443 -0.31797 207.11 -0.528908 207.806L1.38517 208.386ZM3.04225 205.291C3.4167 204.835 3.83505 204.417 4.2908 204.042L3.02114 202.497C2.46476 202.954 1.95408 203.465 1.49695 204.021L3.04225 205.291ZM5.75735 203.061C6.27253 202.785 6.81749 202.557 7.38613 202.385L6.80621 200.471C6.10999 200.682 5.44307 200.96 4.81304 201.297L5.75735 203.061ZM9.11631 202.043C9.40678 202.014 9.70155 202 10 202V200C9.63676 200 9.27734 200.018 8.92259 200.052L9.11631 202.043ZM10 202H10.9615V200H10V202ZM12.8846 202H14.8077V200H12.8846V202ZM16.7308 202H18.6538V200H16.7308V202ZM20.5769 202H22.5V200H20.5769V202ZM24.4231 202H26.3462V200H24.4231V202ZM28.2692 202H30.1923V200H28.2692V202ZM32.1154 202H34.0385V200H32.1154V202ZM35.9615 202H37.8846V200H35.9615V202ZM39.8077 202H41.7308V200H39.8077V202ZM43.6538 202H45.5769V200H43.6538V202ZM47.5 202H49.4231V200H47.5V202ZM51.3462 202H53.2692V200H51.3462V202ZM55.1923 202H57.1154V200H55.1923V202ZM59.0385 202H60V200H59.0385V202ZM60 202C60.3632 202 60.7227 201.982 61.0774 201.948L60.8837 199.957C60.5932 199.986 60.2985 200 60 200V202ZM63.1938 201.529C63.89 201.318 64.5569 201.04 65.187 200.703L64.2427 198.939C63.7275 199.215 63.1825 199.443 62.6139 199.615L63.1938 201.529ZM66.9789 199.503C67.5352 199.046 68.0459 198.535 68.5031 197.979L66.9577 196.709C66.5833 197.165 66.1649 197.583 65.7092 197.958L66.9789 199.503ZM69.7025 196.187C70.04 195.557 70.318 194.89 70.5289 194.194L68.6148 193.614C68.4425 194.183 68.2154 194.727 67.9395 195.243L69.7025 196.187ZM70.9478 192.077C70.9824 191.723 71 191.363 71 191H69C69 191.298 68.9855 191.593 68.9572 191.884L70.9478 192.077ZM71 191V189.994H69V191H71ZM71 187.983V185.972H69V187.983H71ZM71 183.961V181.95H69V183.961H71ZM71 179.939V177.928H69V179.939H71ZM71 175.917V173.906H69V175.917H71ZM71 171.894V169.883H69V171.894H71ZM71 167.872V165.861H69V167.872H71ZM71 163.85V161.839H69V163.85H71ZM71 159.828V157.817H69V159.828H71ZM71 155.806V153.794H69V155.806H71ZM71 151.783V149.772H69V151.783H71ZM71 147.761V145.75H69V147.761H71ZM71 143.739V141.728H69V143.739H71ZM71 139.717V137.706H69V139.717H71ZM71 135.694V133.683H69V135.694H71ZM71 131.672V129.661H69V131.672H71ZM71 127.65V125.639H69V127.65H71ZM71 123.628V121.617H69V123.628H71ZM71 119.606V117.594H69V119.606H71ZM71 115.583V113.572H69V115.583H71ZM71 111.561V109.55H69V111.561H71ZM71 107.539V105.528H69V107.539H71ZM71 103.517V101.506H69V103.517H71ZM71 99.4945V97.4834H69V99.4945H71ZM71 95.4722V93.4611H69V95.4722H71ZM71 91.45V89.4389H69V91.45H71ZM71 87.4278V85.4167H69V87.4278H71ZM71 83.4056V81.3945H69V83.4056H71ZM71 79.3834V77.3723H69V79.3834H71ZM71 75.3612V73.3501H69V75.3612H71ZM71 71.3389V69.3278H69V71.3389H71ZM71 67.3167V65.3056H69V67.3167H71ZM71 63.2945V61.2834H69V63.2945H71ZM71 59.2723V57.2612H69V59.2723H71ZM71 55.2501V53.239H69V55.2501H71ZM71 51.2279V49.2167H69V51.2279H71ZM71 47.2056V45.1945H69V47.2056H71ZM71 43.1834V41.1723H69V43.1834H71ZM71 39.1612V37.1501H69V39.1612H71ZM71 35.139V33.1279H69V35.139H71ZM71 31.1168V29.1057H69V31.1168H71ZM71 27.0946V25.0834H69V27.0946H71ZM71 23.0723V21.0612H69V23.0723H71ZM71 19.0501V17.039H69V19.0501H71ZM71 15.0279V13.0168H69V15.0279H71ZM71 11.0057V10H69V11.0057H71ZM71 10C71 9.70154 71.0145 9.40677 71.0428 9.11631L69.0522 8.92258C69.0176 9.27733 69 9.63675 69 10H71ZM71.3852 7.38612C71.5575 6.81748 71.7846 6.27252 72.0605 5.75735L70.2975 4.81304C69.96 5.44307 69.682 6.10998 69.4711 6.80621L71.3852 7.38612ZM73.0423 4.29079C73.4167 3.83505 73.8351 3.4167 74.2908 3.04225L73.0211 1.49694C72.4648 1.95408 71.9541 2.46475 71.4969 3.02114L73.0423 4.29079ZM75.7574 2.06052C76.2725 1.78459 76.8175 1.55745 77.3861 1.38517L76.8062 -0.528908C76.11 -0.317971 75.4431 -0.0399617 74.813 0.297494L75.7574 2.06052ZM79.1163 1.04276C79.4068 1.01449 79.7015 1 80 1V-1C79.6368 -1 79.2773 -0.982359 78.9226 -0.947835L79.1163 1.04276ZM80 1H80.9923V-1H80V1ZM82.9769 1H84.9615V-1H82.9769V1ZM86.9462 1H88.9308V-1H86.9462V1ZM90.9154 1H92.9V-1H90.9154V1ZM94.8846 1H96.8692V-1H94.8846V1ZM98.8538 1H100.838V-1H98.8538V1ZM102.823 1H104.808V-1H102.823V1ZM106.792 1H108.777V-1H106.792V1ZM110.762 1H112.746V-1H110.762V1ZM114.731 1H116.715V-1H114.731V1ZM118.7 1H120.685V-1H118.7V1ZM122.669 1H124.654V-1H122.669V1ZM126.638 1H128.623V-1H126.638V1ZM130.608 1H132.592V-1H130.608V1ZM134.577 1H136.562V-1H134.577V1ZM138.546 1H140.531V-1H138.546V1ZM142.515 1H144.5V-1H142.515V1ZM146.485 1H148.469V-1H146.485V1ZM150.454 1H152.438V-1H150.454V1ZM154.423 1H156.408V-1H154.423V1ZM158.392 1H160.377V-1H158.392V1ZM162.362 1H164.346V-1H162.362V1ZM166.331 1H168.315V-1H166.331V1ZM170.3 1H172.285V-1H170.3V1ZM174.269 1H176.254V-1H174.269V1ZM178.239 1H180.223V-1H178.239V1ZM182.208 1H184.192V-1H182.208V1ZM186.177 1H188.162V-1H186.177V1ZM190.146 1H192.131V-1H190.146V1ZM194.115 1H196.1V-1H194.115V1ZM198.085 1H200.069V-1H198.085V1ZM202.054 1H204.039V-1H202.054V1ZM206.023 1H208.008V-1H206.023V1ZM209.992 1H211.977V-1H209.992V1ZM213.962 1H215.946V-1H213.962V1ZM217.931 1H219.916V-1H217.931V1ZM221.9 1H223.885V-1H221.9V1ZM225.869 1H227.854V-1H225.869V1ZM229.839 1H231.823V-1H229.839V1ZM233.808 1H235.792V-1H233.808V1ZM237.777 1H239.762V-1H237.777V1ZM241.746 1H243.731V-1H241.746V1ZM245.716 1H247.7V-1H245.716V1ZM249.685 1H251.669V-1H249.685V1ZM253.654 1H255.639V-1H253.654V1ZM257.623 1H259.608V-1H257.623V1ZM261.593 1H263.577V-1H261.593V1ZM265.562 1H267.546V-1H265.562V1ZM269.531 1H271.516V-1H269.531V1ZM273.5 1H275.485V-1H273.5V1ZM277.469 1H279.454V-1H277.469V1ZM281.439 1H283.423V-1H281.439V1ZM285.408 1H287.393V-1H285.408V1ZM289.377 1H291.362V-1H289.377V1ZM293.346 1H295.331V-1H293.346V1ZM297.316 1H299.3V-1H297.316V1ZM301.285 1H303.27V-1H301.285V1ZM305.254 1H307.239V-1H305.254V1ZM309.223 1H311.208V-1H309.223V1ZM313.193 1H315.177V-1H313.193V1ZM317.162 1H319.146V-1H317.162V1ZM321.131 1H323.116V-1H321.131V1ZM325.1 1H327.085V-1H325.1V1ZM329.07 1H331.054V-1H329.07V1ZM333.039 1H335.023V-1H333.039V1ZM337.008 1H338V-1H337.008V1ZM338 1C338.298 1 338.593 1.01449 338.884 1.04276L339.077 -0.947834C338.723 -0.982359 338.363 -1 338 -1V1ZM340.614 1.38517C341.183 1.55745 341.727 1.78459 342.243 2.06053L343.187 0.297495C342.557 -0.0399604 341.89 -0.31797 341.194 -0.528908L340.614 1.38517ZM343.709 3.04225C344.165 3.4167 344.583 3.83505 344.958 4.2908L346.503 3.02114C346.046 2.46476 345.535 1.95408 344.979 1.49695L343.709 3.04225ZM345.939 5.75735C346.215 6.27253 346.443 6.81749 346.615 7.38613L348.529 6.80621C348.318 6.10998 348.04 5.44307 347.703 4.81304L345.939 5.75735ZM346.957 9.11631C346.986 9.40678 347 9.70155 347 10H349C349 9.63676 348.982 9.27734 348.948 8.92259L346.957 9.11631ZM347 10V10.9948H349V10H347ZM347 12.9844V14.974H349V12.9844H347ZM347 16.9635V18.9531H349V16.9635H347ZM347 20.9427V22.9323H349V20.9427H347ZM347 24.9219V26.9115H349V24.9219H347ZM347 28.901V30.8906H349V28.901H347ZM347 32.8802V34.8698H349V32.8802H347ZM347 36.8594V38.849H349V36.8594H347ZM347 40.8385V42.8281H349V40.8385H347ZM347 44.8177V46.8073H349V44.8177H347ZM347 48.7969V50.7865H349V48.7969H347ZM347 52.776V54.7656H349V52.776H347ZM347 56.7552V58.7448H349V56.7552H347ZM347 60.7344V62.7239H349V60.7344H347ZM347 64.7135V66.7031H349V64.7135H347ZM347 68.6927V70.6823H349V68.6927H347ZM347 72.6719V74.6614H349V72.6719H347ZM347 76.651V78.6406H349V76.651H347ZM347 80.6302V82.6198H349V80.6302H347ZM347 84.6094V86.599H349V84.6094H347ZM347 88.5885V90.5781H349V88.5885H347ZM347 92.5677V94.5573H349V92.5677H347ZM347 96.5469V98.5365H349V96.5469H347ZM347 100.526V102.516H349V100.526H347ZM347 104.505V106.495H349V104.505H347ZM347 108.484V110.474H349V108.484H347ZM347 112.464V114.453H349V112.464H347ZM347 116.443V118.432H349V116.443H347ZM347 120.422V122.412H349V120.422H347ZM347 124.401V126.391H349V124.401H347ZM347 128.38V130.37H349V128.38H347ZM347 132.359V134.349H349V132.359H347ZM347 136.339V138.328H349V136.339H347ZM347 140.318V142.307H349V140.318H347ZM347 144.297V146.286H349V144.297H347ZM347 148.276V150.266H349V148.276H347ZM347 152.255V154.245H349V152.255H347ZM347 156.234V158.224H349V156.234H347ZM347 160.214V162.203H349V160.214H347ZM347 164.193V166.182H349V164.193H347ZM347 168.172V170.161H349V168.172H347ZM347 172.151V174.141H349V172.151H347ZM347 176.13V178.12H349V176.13H347ZM347 180.109V182.099H349V180.109H347ZM347 184.088V186.078H349V184.088H347ZM347 188.068V190.057H349V188.068H347ZM347 192.047V194.036H349V192.047H347ZM347 196.026V198.016H349V196.026H347ZM347 200.005V201.995H349V200.005H347ZM347 203.984V205.974H349V203.984H347ZM347 207.963V209.953H349V207.963H347ZM347 211.943V213.932H349V211.943H347ZM347 215.922V217.911H349V215.922H347ZM347 219.901V221.89H349V219.901H347ZM347 223.88V225.87H349V223.88H347ZM347 227.859V229.849H349V227.859H347ZM347 231.838V233.828H349V231.838H347ZM347 235.818V237.807H349V235.818H347ZM347 239.797V241.786H349V239.797H347ZM347 243.776V245.765H349V243.776H347ZM347 247.755V249.745H349V247.755H347ZM347 251.734V253.724H349V251.734H347ZM347 255.713V257.703H349V255.713H347ZM347 259.692V261.682H349V259.692H347ZM347 263.672V265.661H349V263.672H347ZM347 267.651V269.64H349V267.651H347ZM347 271.63V273.62H349V271.63H347ZM347 275.609V277.599H349V275.609H347ZM347 279.588V281.578H349V279.588H347ZM347 283.568V285.557H349V283.568H347ZM347 287.547V289.536H349V287.547H347ZM347 291.526V293.516H349V291.526H347ZM347 295.505V297.495H349V295.505H347ZM347 299.484V301.474H349V299.484H347ZM347 303.463V305.453H349V303.463H347ZM347 307.443V309.432H349V307.443H347ZM347 311.422V313.411H349V311.422H347ZM347 315.401V317.391H349V315.401H347ZM347 319.38V321.37H349V319.38H347ZM347 323.359V325.349H349V323.359H347ZM347 327.339V329.328H349V327.339H347ZM347 331.318V333.307H349V331.318H347ZM347 335.297V337.287H349V335.297H347ZM347 339.276V341.266H349V339.276H347ZM347 343.255V345.245H349V343.255H347ZM347 347.235V349.224H349V347.235H347ZM347 351.214V353.203H349V351.214H347ZM347 355.193V357.182H349V355.193H347ZM347 359.172V361.162H349V359.172H347ZM347 363.151V365.141H349V363.151H347ZM347 367.13V369.12H349V367.13H347ZM347 371.11V373.099H349V371.11H347ZM347 375.089V377.078H349V375.089H347ZM347 379.068V381.058H349V379.068H347ZM347 383.047V385.037H349V383.047H347ZM347 387.026V389.016H349V387.026H347ZM347 391.006V392H349V391.006H347ZM347 392C347 392.298 346.986 392.593 346.957 392.884L348.948 393.077C348.982 392.723 349 392.363 349 392H347ZM346.615 394.614C346.443 395.183 346.215 395.727 345.939 396.243L347.703 397.187C348.04 396.557 348.318 395.89 348.529 395.194L346.615 394.614ZM344.958 397.709C344.583 398.165 344.165 398.583 343.709 398.958L344.979 400.503C345.535 400.046 346.046 399.535 346.503 398.979L344.958 397.709ZM342.243 399.939C341.727 400.215 341.183 400.443 340.614 400.615L341.194 402.529C341.89 402.318 342.557 402.04 343.187 401.703L342.243 399.939ZM338.884 400.957C338.593 400.986 338.298 401 338 401V403C338.363 403 338.723 402.982 339.077 402.948L338.884 400.957ZM338 400H337.008V404H338V400ZM335.023 400H333.038V404H335.023V400ZM331.054 400H329.069V404H331.054V400ZM327.085 400H325.1V404H327.085V400ZM323.115 400H321.131V404H323.115V400ZM319.146 400H317.162V404H319.146V400ZM315.177 400H313.192V404H315.177V400ZM311.208 400H309.223V404H311.208V400ZM307.238 400H305.254V404H307.238V400ZM303.269 400H301.285V404H303.269V400ZM299.3 400H297.315V404H299.3V400ZM295.331 400H293.346V404H295.331V400ZM291.362 400H289.377V404H291.362V400ZM287.392 400H285.408V404H287.392V400ZM283.423 400H281.438V404H283.423V400ZM279.454 400H277.469V404H279.454V400ZM275.485 400H273.5V404H275.485V400ZM271.515 400H269.531V404H271.515V400ZM267.546 400H265.562V404H267.546V400ZM263.577 400H261.592V404H263.577V400ZM259.608 400H257.623V404H259.608V400ZM255.638 400H253.654V404H255.638V400ZM251.669 400H249.685V404H251.669V400ZM247.7 400H245.715V404H247.7V400ZM243.731 400H241.746V404H243.731V400ZM239.761 400H237.777V404H239.761V400ZM235.792 400H233.808V404H235.792V400ZM231.823 400H229.838V404H231.823V400ZM227.854 400H225.869V404H227.854V400ZM223.885 400H221.9V404H223.885V400ZM219.915 400H217.931V404H219.915V400ZM215.946 400H213.961V404H215.946V400ZM211.977 400H209.992V404H211.977V400ZM208.008 400H206.023V404H208.008V400ZM204.038 400H202.054V404H204.038V400ZM200.069 400H198.084V404H200.069V400ZM196.1 400H194.115V404H196.1V400ZM192.131 400H190.146V404H192.131V400ZM188.161 400H186.177V404H188.161V400ZM184.192 400H182.208V404H184.192V400ZM180.223 400H178.238V404H180.223V400ZM176.254 400H174.269V404H176.254V400ZM172.284 400H170.3V404H172.284V400ZM168.315 400H166.331V404H168.315V400ZM164.346 400H162.361V404H164.346V400ZM160.377 400H158.392V404H160.377V400ZM156.407 400H154.423V404H156.407V400ZM152.438 400H150.454V404H152.438V400ZM148.469 400H146.484V404H148.469V400ZM144.5 400H142.515V404H144.5V400ZM140.531 400H138.546V404H140.531V400ZM136.561 400H134.577V404H136.561V400ZM132.592 400H130.607V404H132.592V400ZM128.623 400H126.638V404H128.623V400ZM124.654 400H122.669V404H124.654V400ZM120.684 400H118.7V404H120.684V400ZM116.715 400H114.73V404H116.715V400ZM112.746 400H110.761V404H112.746V400ZM108.777 400H106.792V404H108.777V400ZM104.807 400H102.823V404H104.807V400ZM100.838 400H98.8535V404H100.838V400ZM96.8689 400H94.8843V404H96.8689V400ZM92.8997 400H90.915V404H92.8997V400ZM88.9304 400H86.9458V404H88.9304V400ZM84.9612 400H82.9766V404H84.9612V400ZM80.9919 400H80V404H80.9919V400ZM80 400C79.7339 400 79.4715 399.987 79.2132 399.962L78.8257 403.943C79.2126 403.981 79.6044 404 80 404V400ZM77.6761 399.658C77.1712 399.505 76.6873 399.303 76.2295 399.058L74.3409 402.584C75.0283 402.952 75.7562 403.256 76.5163 403.486L77.6761 399.658ZM74.9256 398.185C74.5202 397.852 74.148 397.48 73.8149 397.074L70.7243 399.614C71.2228 400.22 71.7796 400.777 72.3863 401.276L74.9256 398.185ZM72.942 395.77C72.6969 395.313 72.4952 394.829 72.3422 394.324L68.5141 395.484C68.7443 396.244 69.0478 396.972 69.416 397.659L72.942 395.77ZM72.0381 392.787C72.0129 392.529 72 392.266 72 392H68C68 392.396 68.0192 392.787 68.0569 393.174L72.0381 392.787ZM72 392V391H68V392H72ZM72 389V387H68V389H72ZM72 385V383H68V385H72ZM72 381V379H68V381H72ZM72 377V375H68V377H72ZM72 373V371H68V373H72ZM72 369V367H68V369H72ZM72 365V363H68V365H72ZM72 361V359H68V361H72ZM72 357V355H68V357H72ZM72 353V351H68V353H72ZM72 349V347H68V349H72ZM72 345V343H68V345H72ZM72 341V339H68V341H72ZM72 337V335H68V337H72ZM72 333V331H68V333H72ZM72 329V327H68V329H72ZM72 325V323H68V325H72ZM72 321V319H68V321H72ZM72 317V315H68V317H72ZM72 313V311H68V313H72ZM72 309V307H68V309H72ZM72 305V303H68V305H72ZM72 301V299H68V301H72ZM72 297V295H68V297H72ZM72 293V291H68V293H72ZM72 289V287H68V289H72ZM72 285V283H68V285H72ZM72 281V280H68V281H72ZM72 280C72 279.604 71.9808 279.213 71.9431 278.826L67.9619 279.213C67.9871 279.471 68 279.734 68 280H72ZM71.4859 276.516C71.2557 275.756 70.9522 275.028 70.584 274.341L67.058 276.23C67.3031 276.687 67.5048 277.171 67.6578 277.676L71.4859 276.516ZM69.2757 272.386C68.7772 271.78 68.2204 271.223 67.6137 270.724L65.0744 273.815C65.4798 274.148 65.852 274.52 66.1851 274.926L69.2757 272.386ZM65.6591 269.416C64.9717 269.048 64.2438 268.744 63.4837 268.514L62.3239 272.342C62.8288 272.495 63.3127 272.697 63.7705 272.942L65.6591 269.416ZM61.1743 268.057C60.7874 268.019 60.3956 268 60 268V272C60.2661 272 60.5285 272.013 60.7868 272.038L61.1743 268.057ZM60 268H59.0385V272H60V268ZM57.1154 268H55.1923V272H57.1154V268ZM53.2692 268H51.3462V272H53.2692V268ZM49.4231 268H47.5V272H49.4231V268ZM45.5769 268H43.6538V272H45.5769V268ZM41.7308 268H39.8077V272H41.7308V268ZM37.8846 268H35.9615V272H37.8846V268ZM34.0385 268H32.1154V272H34.0385V268ZM30.1923 268H28.2692V272H30.1923V268ZM26.3462 268H24.4231V272H26.3462V268ZM22.5 268H20.5769V272H22.5V268ZM18.6538 268H16.7308V272H18.6538V268ZM14.8077 268H12.8846V272H14.8077V268ZM10.9615 268H10V272H10.9615V268ZM10 268C9.73394 268 9.4715 267.987 9.21318 267.962L8.82572 271.943C9.21261 271.981 9.60436 272 10 272V268ZM7.67608 267.658C7.17124 267.505 6.68725 267.303 6.2295 267.058L4.34088 270.584C5.02834 270.952 5.75623 271.256 6.51626 271.486L7.67608 267.658ZM4.92562 266.185C4.5202 265.852 4.14801 265.48 3.81491 265.074L0.724291 267.614C1.22277 268.22 1.77961 268.777 2.38631 269.276L4.92562 266.185ZM2.94204 263.77C2.69686 263.313 2.49516 262.829 2.34221 262.324L-1.48595 263.484C-1.25568 264.244 -0.952235 264.972 -0.584021 265.659L2.94204 263.77ZM2.03806 260.787C2.01292 260.529 2 260.266 2 260H-2C-2 260.396 -1.98078 260.787 -1.94313 261.174L2.03806 260.787ZM2 260V258.979H-2V260H2ZM2 256.938V254.896H-2V256.938H2ZM2 252.854V250.812H-2V252.854H2ZM2 248.771V246.729H-2V248.771H2ZM2 244.687V242.646H-2V244.687H2ZM2 240.604V238.563H-2V240.604H2ZM2 236.521V234.479H-2V236.521H2ZM2 232.438V230.396H-2V232.438H2ZM2 228.354V226.313H-2V228.354H2ZM2 224.271V222.229H-2V224.271H2ZM2 220.188V218.146H-2V220.188H2ZM2 216.104V214.062H-2V216.104H2ZM2 212.021V211H-2V212.021H2ZM2 211C2 210.734 2.01292 210.471 2.03806 210.213L-1.94313 209.826C-1.98078 210.213 -2 210.604 -2 211H2ZM2.34221 208.676C2.49517 208.171 2.69686 207.687 2.94204 207.23L-0.58402 205.341C-0.952235 206.028 -1.25568 206.756 -1.48595 207.516L2.34221 208.676ZM3.81491 205.926C4.14801 205.52 4.5202 205.148 4.92562 204.815L2.38632 201.724C1.77961 202.223 1.22277 202.78 0.724291 203.386L3.81491 205.926ZM6.22951 203.942C6.68726 203.697 7.17124 203.495 7.67608 203.342L6.51626 199.514C5.75623 199.744 5.02834 200.048 4.34088 200.416L6.22951 203.942ZM9.21318 203.038C9.4715 203.013 9.73394 203 10 203V199C9.60436 199 9.21261 199.019 8.82572 199.057L9.21318 203.038ZM10 203H10.9615V199H10V203ZM12.8846 203H14.8077V199H12.8846V203ZM16.7308 203H18.6538V199H16.7308V203ZM20.5769 203H22.5V199H20.5769V203ZM24.4231 203H26.3462V199H24.4231V203ZM28.2692 203H30.1923V199H28.2692V203ZM32.1154 203H34.0385V199H32.1154V203ZM35.9615 203H37.8846V199H35.9615V203ZM39.8077 203H41.7308V199H39.8077V203ZM43.6538 203H45.5769V199H43.6538V203ZM47.5 203H49.4231V199H47.5V203ZM51.3462 203H53.2692V199H51.3462V203ZM55.1923 203H57.1154V199H55.1923V203ZM59.0385 203H60V199H59.0385V203ZM60 203C60.3956 203 60.7874 202.981 61.1743 202.943L60.7868 198.962C60.5285 198.987 60.2661 199 60 199V203ZM63.4837 202.486C64.2438 202.256 64.9717 201.952 65.6591 201.584L63.7705 198.058C63.3127 198.303 62.8288 198.505 62.3239 198.658L63.4837 202.486ZM67.6137 200.276C68.2204 199.777 68.7772 199.22 69.2757 198.614L66.1851 196.074C65.852 196.48 65.4798 196.852 65.0744 197.185L67.6137 200.276ZM70.584 196.659C70.9522 195.972 71.2557 195.244 71.4859 194.484L67.6578 193.324C67.5048 193.829 67.3031 194.313 67.058 194.77L70.584 196.659ZM71.9431 192.174C71.9808 191.787 72 191.396 72 191H68C68 191.266 67.9871 191.529 67.9619 191.787L71.9431 192.174ZM72 191V189.994H68V191H72ZM72 187.983V185.972H68V187.983H72ZM72 183.961V181.95H68V183.961H72ZM72 179.939V177.928H68V179.939H72ZM72 175.917V173.906H68V175.917H72ZM72 171.894V169.883H68V171.894H72ZM72 167.872V165.861H68V167.872H72ZM72 163.85V161.839H68V163.85H72ZM72 159.828V157.817H68V159.828H72ZM72 155.806V153.794H68V155.806H72ZM72 151.783V149.772H68V151.783H72ZM72 147.761V145.75H68V147.761H72ZM72 143.739V141.728H68V143.739H72ZM72 139.717V137.706H68V139.717H72ZM72 135.694V133.683H68V135.694H72ZM72 131.672V129.661H68V131.672H72ZM72 127.65V125.639H68V127.65H72ZM72 123.628V121.617H68V123.628H72ZM72 119.606V117.594H68V119.606H72ZM72 115.583V113.572H68V115.583H72ZM72 111.561V109.55H68V111.561H72ZM72 107.539V105.528H68V107.539H72ZM72 103.517V101.506H68V103.517H72ZM72 99.4945V97.4834H68V99.4945H72ZM72 95.4722V93.4611H68V95.4722H72ZM72 91.45V89.4389H68V91.45H72ZM72 87.4278V85.4167H68V87.4278H72ZM72 83.4056V81.3945H68V83.4056H72ZM72 79.3834V77.3723H68V79.3834H72ZM72 75.3612V73.3501H68V75.3612H72ZM72 71.3389V69.3278H68V71.3389H72ZM72 67.3167V65.3056H68V67.3167H72ZM72 63.2945V61.2834H68V63.2945H72ZM72 59.2723V57.2612H68V59.2723H72ZM72 55.2501V53.239H68V55.2501H72ZM72 51.2279V49.2167H68V51.2279H72ZM72 47.2056V45.1945H68V47.2056H72ZM72 43.1834V41.1723H68V43.1834H72ZM72 39.1612V37.1501H68V39.1612H72ZM72 35.139V33.1279H68V35.139H72ZM72 31.1168V29.1057H68V31.1168H72ZM72 27.0946V25.0834H68V27.0946H72ZM72 23.0723V21.0612H68V23.0723H72ZM72 19.0501V17.039H68V19.0501H72ZM72 15.0279V13.0168H68V15.0279H72ZM72 11.0057V10H68V11.0057H72ZM72 10C72 9.73394 72.0129 9.47149 72.0381 9.21317L68.0569 8.82572C68.0192 9.21261 68 9.60436 68 10H72ZM72.3422 7.67608C72.4952 7.17124 72.6969 6.68725 72.942 6.2295L69.416 4.34088C69.0478 5.02834 68.7443 5.75623 68.5141 6.51625L72.3422 7.67608ZM73.8149 4.92562C74.148 4.5202 74.5202 4.14801 74.9256 3.81491L72.3863 0.724289C71.7796 1.22277 71.2228 1.77961 70.7243 2.38631L73.8149 4.92562ZM76.2295 2.94204C76.6873 2.69686 77.1712 2.49516 77.6761 2.34221L76.5163 -1.48595C75.7562 -1.25568 75.0283 -0.952236 74.3409 -0.584022L76.2295 2.94204ZM79.2132 2.03806C79.4715 2.01292 79.7339 2 80 2V-2C79.6044 -2 79.2126 -1.98078 78.8257 -1.94313L79.2132 2.03806ZM80 2H80.9923V-2H80V2ZM82.9769 2H84.9615V-2H82.9769V2ZM86.9462 2H88.9308V-2H86.9462V2ZM90.9154 2H92.9V-2H90.9154V2ZM94.8846 2H96.8692V-2H94.8846V2ZM98.8538 2H100.838V-2H98.8538V2ZM102.823 2H104.808V-2H102.823V2ZM106.792 2H108.777V-2H106.792V2ZM110.762 2H112.746V-2H110.762V2ZM114.731 2H116.715V-2H114.731V2ZM118.7 2H120.685V-2H118.7V2ZM122.669 2H124.654V-2H122.669V2ZM126.638 2H128.623V-2H126.638V2ZM130.608 2H132.592V-2H130.608V2ZM134.577 2H136.562V-2H134.577V2ZM138.546 2H140.531V-2H138.546V2ZM142.515 2H144.5V-2H142.515V2ZM146.485 2H148.469V-2H146.485V2ZM150.454 2H152.438V-2H150.454V2ZM154.423 2H156.408V-2H154.423V2ZM158.392 2H160.377V-2H158.392V2ZM162.362 2H164.346V-2H162.362V2ZM166.331 2H168.315V-2H166.331V2ZM170.3 2H172.285V-2H170.3V2ZM174.269 2H176.254V-2H174.269V2ZM178.239 2H180.223V-2H178.239V2ZM182.208 2H184.192V-2H182.208V2ZM186.177 2H188.162V-2H186.177V2ZM190.146 2H192.131V-2H190.146V2ZM194.115 2H196.1V-2H194.115V2ZM198.085 2H200.069V-2H198.085V2ZM202.054 2H204.039V-2H202.054V2ZM206.023 2H208.008V-2H206.023V2ZM209.992 2H211.977V-2H209.992V2ZM213.962 2H215.946V-2H213.962V2ZM217.931 2H219.916V-2H217.931V2ZM221.9 2H223.885V-2H221.9V2ZM225.869 2H227.854V-2H225.869V2ZM229.839 2H231.823V-2H229.839V2ZM233.808 2H235.792V-2H233.808V2ZM237.777 2H239.762V-2H237.777V2ZM241.746 2H243.731V-2H241.746V2ZM245.716 2H247.7V-2H245.716V2ZM249.685 2H251.669V-2H249.685V2ZM253.654 2H255.639V-2H253.654V2ZM257.623 2H259.608V-2H257.623V2ZM261.593 2H263.577V-2H261.593V2ZM265.562 2H267.546V-2H265.562V2ZM269.531 2H271.516V-2H269.531V2ZM273.5 2H275.485V-2H273.5V2ZM277.469 2H279.454V-2H277.469V2ZM281.439 2H283.423V-2H281.439V2ZM285.408 2H287.393V-2H285.408V2ZM289.377 2H291.362V-2H289.377V2ZM293.346 2H295.331V-2H293.346V2ZM297.316 2H299.3V-2H297.316V2ZM301.285 2H303.27V-2H301.285V2ZM305.254 2H307.239V-2H305.254V2ZM309.223 2H311.208V-2H309.223V2ZM313.193 2H315.177V-2H313.193V2ZM317.162 2H319.146V-2H317.162V2ZM321.131 2H323.116V-2H321.131V2ZM325.1 2H327.085V-2H325.1V2ZM329.07 2H331.054V-2H329.07V2ZM333.039 2H335.023V-2H333.039V2ZM337.008 2H338V-2H337.008V2ZM338 2C338.266 2 338.529 2.01292 338.787 2.03806L339.174 -1.94313C338.787 -1.98078 338.396 -2 338 -2V2ZM340.324 2.34221C340.829 2.49517 341.313 2.69686 341.77 2.94204L343.659 -0.58402C342.972 -0.952235 342.244 -1.25568 341.484 -1.48595L340.324 2.34221ZM343.074 3.81491C343.48 4.14801 343.852 4.5202 344.185 4.92562L347.276 2.38632C346.777 1.77961 346.22 1.22277 345.614 0.724292L343.074 3.81491ZM345.058 6.22951C345.303 6.68726 345.505 7.17124 345.658 7.67608L349.486 6.51626C349.256 5.75623 348.952 5.02834 348.584 4.34088L345.058 6.22951ZM345.962 9.21318C345.987 9.4715 346 9.73394 346 10H350C350 9.60436 349.981 9.21261 349.943 8.82572L345.962 9.21318ZM346 10V10.9948H350V10H346ZM346 12.9844V14.974H350V12.9844H346ZM346 16.9635V18.9531H350V16.9635H346ZM346 20.9427V22.9323H350V20.9427H346ZM346 24.9219V26.9115H350V24.9219H346ZM346 28.901V30.8906H350V28.901H346ZM346 32.8802V34.8698H350V32.8802H346ZM346 36.8594V38.849H350V36.8594H346ZM346 40.8385V42.8281H350V40.8385H346ZM346 44.8177V46.8073H350V44.8177H346ZM346 48.7969V50.7865H350V48.7969H346ZM346 52.776V54.7656H350V52.776H346ZM346 56.7552V58.7448H350V56.7552H346ZM346 60.7344V62.7239H350V60.7344H346ZM346 64.7135V66.7031H350V64.7135H346ZM346 68.6927V70.6823H350V68.6927H346ZM346 72.6719V74.6614H350V72.6719H346ZM346 76.651V78.6406H350V76.651H346ZM346 80.6302V82.6198H350V80.6302H346ZM346 84.6094V86.599H350V84.6094H346ZM346 88.5885V90.5781H350V88.5885H346ZM346 92.5677V94.5573H350V92.5677H346ZM346 96.5469V98.5365H350V96.5469H346ZM346 100.526V102.516H350V100.526H346ZM346 104.505V106.495H350V104.505H346ZM346 108.484V110.474H350V108.484H346ZM346 112.464V114.453H350V112.464H346ZM346 116.443V118.432H350V116.443H346ZM346 120.422V122.412H350V120.422H346ZM346 124.401V126.391H350V124.401H346ZM346 128.38V130.37H350V128.38H346ZM346 132.359V134.349H350V132.359H346ZM346 136.339V138.328H350V136.339H346ZM346 140.318V142.307H350V140.318H346ZM346 144.297V146.286H350V144.297H346ZM346 148.276V150.266H350V148.276H346ZM346 152.255V154.245H350V152.255H346ZM346 156.234V158.224H350V156.234H346ZM346 160.214V162.203H350V160.214H346ZM346 164.193V166.182H350V164.193H346ZM346 168.172V170.161H350V168.172H346ZM346 172.151V174.141H350V172.151H346ZM346 176.13V178.12H350V176.13H346ZM346 180.109V182.099H350V180.109H346ZM346 184.088V186.078H350V184.088H346ZM346 188.068V190.057H350V188.068H346ZM346 192.047V194.036H350V192.047H346ZM346 196.026V198.016H350V196.026H346ZM346 200.005V201.995H350V200.005H346ZM346 203.984V205.974H350V203.984H346ZM346 207.963V209.953H350V207.963H346ZM346 211.943V213.932H350V211.943H346ZM346 215.922V217.911H350V215.922H346ZM346 219.901V221.89H350V219.901H346ZM346 223.88V225.87H350V223.88H346ZM346 227.859V229.849H350V227.859H346ZM346 231.838V233.828H350V231.838H346ZM346 235.818V237.807H350V235.818H346ZM346 239.797V241.786H350V239.797H346ZM346 243.776V245.765H350V243.776H346ZM346 247.755V249.745H350V247.755H346ZM346 251.734V253.724H350V251.734H346ZM346 255.713V257.703H350V255.713H346ZM346 259.692V261.682H350V259.692H346ZM346 263.672V265.661H350V263.672H346ZM346 267.651V269.64H350V267.651H346ZM346 271.63V273.62H350V271.63H346ZM346 275.609V277.599H350V275.609H346ZM346 279.588V281.578H350V279.588H346ZM346 283.568V285.557H350V283.568H346ZM346 287.547V289.536H350V287.547H346ZM346 291.526V293.516H350V291.526H346ZM346 295.505V297.495H350V295.505H346ZM346 299.484V301.474H350V299.484H346ZM346 303.463V305.453H350V303.463H346ZM346 307.443V309.432H350V307.443H346ZM346 311.422V313.411H350V311.422H346ZM346 315.401V317.391H350V315.401H346ZM346 319.38V321.37H350V319.38H346ZM346 323.359V325.349H350V323.359H346ZM346 327.339V329.328H350V327.339H346ZM346 331.318V333.307H350V331.318H346ZM346 335.297V337.287H350V335.297H346ZM346 339.276V341.266H350V339.276H346ZM346 343.255V345.245H350V343.255H346ZM346 347.235V349.224H350V347.235H346ZM346 351.214V353.203H350V351.214H346ZM346 355.193V357.182H350V355.193H346ZM346 359.172V361.162H350V359.172H346ZM346 363.151V365.141H350V363.151H346ZM346 367.13V369.12H350V367.13H346ZM346 371.11V373.099H350V371.11H346ZM346 375.089V377.078H350V375.089H346ZM346 379.068V381.058H350V379.068H346ZM346 383.047V385.037H350V383.047H346ZM346 387.026V389.016H350V387.026H346ZM346 391.006V392H350V391.006H346ZM346 392C346 392.266 345.987 392.528 345.962 392.787L349.943 393.174C349.981 392.787 350 392.396 350 392H346ZM345.658 394.324C345.505 394.829 345.303 395.313 345.058 395.77L348.584 397.659C348.952 396.972 349.256 396.244 349.486 395.484L345.658 394.324ZM344.185 397.074C343.852 397.48 343.48 397.852 343.074 398.185L345.614 401.276C346.22 400.777 346.777 400.22 347.276 399.614L344.185 397.074ZM341.77 399.058C341.313 399.303 340.829 399.505 340.324 399.658L341.484 403.486C342.244 403.256 342.972 402.952 343.659 402.584L341.77 399.058ZM338.787 399.962C338.529 399.987 338.266 400 338 400V404C338.396 404 338.787 403.981 339.174 403.943L338.787 399.962Z" fill="#BA68C8" mask="url(#path-1-inside-1_3_151)"/>
<circle cx="36" cy="40" r="24" fill="#90CAF9" stroke="#42A5F5" stroke-width="2"/>
<circle cx="36" cy="105" r="24" fill="#90CAF9" stroke="#42A5F5" stroke-width="2"/>
<circle cx="36" cy="235" r="24" fill="#90CAF9" stroke="#42A5F5" stroke-width="2"/>
<circle cx="36" cy="364" r="24" fill="#90CAF9" stroke="#42A5F5" stroke-width="2"/>
<circle cx="35.5" cy="307.5" r="2.5" transform="rotate(-90 35.5 307.5)" fill="#42A5F5"/>
<circle cx="35.5" cy="289.5" r="2.5" transform="rotate(-90 35.5 289.5)" fill="#42A5F5"/>
<circle cx="35.5" cy="298.5" r="2.5" transform="rotate(-90 35.5 298.5)" fill="#42A5F5"/>
<circle cx="33.5" cy="178.5" r="2.5" transform="rotate(-90 33.5 178.5)" fill="#42A5F5"/>
<circle cx="33.5" cy="160.5" r="2.5" transform="rotate(-90 33.5 160.5)" fill="#42A5F5"/>
<circle cx="33.5" cy="169.5" r="2.5" transform="rotate(-90 33.5 169.5)" fill="#42A5F5"/>
<circle cx="305" cy="40" r="24" fill="#A5D6A7" stroke="#66BB6A" stroke-width="2"/>
<circle cx="305" cy="105" r="24" fill="#A5D6A7" stroke="#66BB6A" stroke-width="2"/>
<circle cx="305" cy="235" r="24" fill="#A5D6A7" stroke="#66BB6A" stroke-width="2"/>
<circle cx="305" cy="364" r="24" fill="#A5D6A7" stroke="#66BB6A" stroke-width="2"/>
<circle cx="304.5" cy="307.5" r="2.5" transform="rotate(-90 304.5 307.5)" fill="#66BB6A"/>
<circle cx="304.5" cy="289.5" r="2.5" transform="rotate(-90 304.5 289.5)" fill="#66BB6A"/>
<circle cx="304.5" cy="298.5" r="2.5" transform="rotate(-90 304.5 298.5)" fill="#66BB6A"/>
<circle cx="304.5" cy="178.5" r="2.5" transform="rotate(-90 304.5 178.5)" fill="#66BB6A"/>
<circle cx="304.5" cy="160.5" r="2.5" transform="rotate(-90 304.5 160.5)" fill="#66BB6A"/>
<circle cx="304.5" cy="169.5" r="2.5" transform="rotate(-90 304.5 169.5)" fill="#66BB6A"/>
<path d="M269 40.0152C269.008 39.4629 268.567 39.0085 268.015 39.0001L259.016 38.8638C258.464 38.8554 258.01 39.2963 258.001 39.8485C257.993 40.4007 258.434 40.8552 258.986 40.8636L266.985 40.9848L266.864 48.9838C266.855 49.5361 267.296 49.9905 267.848 49.9989C268.401 50.0072 268.855 49.5664 268.864 49.0141L269 40.0152ZM67.6963 235.718L268.696 40.7178L267.304 39.2823L66.3037 234.282L67.6963 235.718Z" fill="#BA68C8"/>
<path d="M268.213 364.977C268.753 364.859 269.095 364.326 268.977 363.787L267.059 354.994C266.941 354.454 266.408 354.112 265.868 354.23C265.329 354.348 264.987 354.88 265.104 355.42L266.81 363.236L258.994 364.941C258.454 365.059 258.112 365.592 258.23 366.132C258.348 366.671 258.88 367.013 259.42 366.896L268.213 364.977ZM66.4599 235.842L267.46 364.842L268.54 363.158L67.5401 234.158L66.4599 235.842Z" fill="#BA68C8"/>
<path d="M268.707 235.707C269.098 235.317 269.098 234.683 268.707 234.293L262.343 227.929C261.953 227.538 261.319 227.538 260.929 227.929C260.538 228.319 260.538 228.953 260.929 229.343L266.586 235L260.929 240.657C260.538 241.047 260.538 241.681 260.929 242.071C261.319 242.462 261.953 242.462 262.343 242.071L268.707 235.707ZM67 236L268 236V234L67 234V236Z" fill="#BA68C8"/>
<path d="M268.978 105.21C269.094 104.67 268.75 104.138 268.21 104.022L259.41 102.135C258.87 102.019 258.338 102.363 258.222 102.903C258.107 103.443 258.45 103.974 258.99 104.09L266.813 105.768L265.135 113.59C265.019 114.13 265.363 114.662 265.903 114.778C266.443 114.893 266.974 114.55 267.09 114.01L268.978 105.21ZM67.5431 235.84L268.543 105.84L267.457 104.16L66.4569 234.16L67.5431 235.84Z" fill="#BA68C8"/>
<path d="M29.696 46.384C29.0133 46.384 28.4053 46.1173 27.872 45.584C27.36 45.0293 27.104 44.272 27.104 43.312C27.104 42.8427 27.168 42.2773 27.296 41.616C27.424 40.9333 27.5733 40.4107 27.744 40.048L29.792 35.28C29.8987 35.0453 30.0053 34.736 30.112 34.352C30.24 33.968 30.304 33.648 30.304 33.392C30.304 33.0933 30.24 32.848 30.112 32.656C29.984 32.464 29.8027 32.368 29.568 32.368C28.8427 32.368 28.1493 32.9227 27.488 34.032C26.8267 35.1413 26.2613 36.336 25.792 37.616L25.152 37.424C25.728 35.696 26.4213 34.2667 27.232 33.136C28.064 31.984 28.96 31.408 29.92 31.408C30.496 31.408 30.976 31.664 31.36 32.176C31.7653 32.688 31.968 33.456 31.968 34.48C31.968 34.9493 31.904 35.5147 31.776 36.176C31.648 36.816 31.4987 37.3387 31.328 37.744L29.28 42.512C29.1733 42.7467 29.056 43.056 28.928 43.44C28.8213 43.824 28.768 44.144 28.768 44.4C28.768 44.8267 28.864 45.136 29.056 45.328C29.248 45.52 29.5893 45.616 30.08 45.616C31.4027 45.616 32.6187 45.0507 33.728 43.92C34.8373 42.7893 35.712 41.4667 36.352 39.952C36.992 38.416 37.312 37.1253 37.312 36.08C37.312 35.6747 37.216 35.3867 37.024 35.216C36.8533 35.0453 36.6293 34.928 36.352 34.864C35.9467 34.7787 35.552 34.576 35.168 34.256C34.8053 33.936 34.624 33.52 34.624 33.008C34.624 32.5173 34.7627 32.1333 35.04 31.856C35.3387 31.5573 35.7227 31.408 36.192 31.408C36.9813 31.408 37.5573 31.7707 37.92 32.496C38.2827 33.2 38.464 34.032 38.464 34.992C38.464 36.1013 38.1333 37.5733 37.472 39.408C36.832 41.2213 35.8507 42.8427 34.528 44.272C33.2053 45.68 31.5947 46.384 29.696 46.384Z" fill="black"/>
<path d="M39.868 50.552H41.17C41.31 50.552 41.4173 50.524 41.492 50.468C41.576 50.412 41.6367 50.3187 41.674 50.188L43.592 43.118C43.4707 43.202 43.3073 43.286 43.102 43.37C42.8967 43.4447 42.7287 43.5007 42.598 43.538C42.4673 43.5753 42.3787 43.6033 42.332 43.622L41.856 43.776L41.758 43.496C42.43 43.3 43.032 43.0527 43.564 42.754C44.1053 42.446 44.5487 42.0027 44.894 41.424H45.328L42.948 50.188C42.9293 50.2627 42.92 50.314 42.92 50.342C42.92 50.4167 42.9433 50.4727 42.99 50.51C43.046 50.538 43.1253 50.552 43.228 50.552H44.6L44.488 51H39.756L39.868 50.552Z" fill="black"/>
<path d="M300.952 46.384C299.672 46.384 298.637 45.8613 297.848 44.816C297.059 43.7493 296.664 42.4587 296.664 40.944C296.664 39.664 296.899 38.4053 297.368 37.168C297.837 35.9093 298.541 34.7893 299.48 33.808C300.227 33.0187 300.973 32.4213 301.72 32.016C302.488 31.6107 303.341 31.408 304.28 31.408C305.091 31.408 305.805 31.664 306.424 32.176C307.043 32.688 307.352 33.4987 307.352 34.608C307.352 35.248 307.171 35.7813 306.808 36.208C306.467 36.6347 306.04 36.848 305.528 36.848C305.123 36.848 304.813 36.7307 304.6 36.496C304.387 36.24 304.28 35.952 304.28 35.632C304.28 35.0133 304.621 34.4587 305.304 33.968C305.539 33.776 305.656 33.4987 305.656 33.136C305.656 32.944 305.539 32.7413 305.304 32.528C305.069 32.2933 304.685 32.176 304.152 32.176C302.488 32.176 301.037 34.032 299.8 37.744C299.565 38.448 299.363 39.3333 299.192 40.4C299.043 41.4453 298.968 42.2667 298.968 42.864C298.968 43.8027 299.171 44.496 299.576 44.944C300.003 45.392 300.515 45.616 301.112 45.616C302.435 45.616 303.512 45.0827 304.344 44.016C305.176 42.9493 305.763 41.9573 306.104 41.04L306.776 41.264C306.264 42.7147 305.485 43.9307 304.44 44.912C303.395 45.8933 302.232 46.384 300.952 46.384Z" fill="black"/>
<path d="M307.868 50.552H309.17C309.31 50.552 309.417 50.524 309.492 50.468C309.576 50.412 309.637 50.3187 309.674 50.188L311.592 43.118C311.471 43.202 311.307 43.286 311.102 43.37C310.897 43.4447 310.729 43.5007 310.598 43.538C310.467 43.5753 310.379 43.6033 310.332 43.622L309.856 43.776L309.758 43.496C310.43 43.3 311.032 43.0527 311.564 42.754C312.105 42.446 312.549 42.0027 312.894 41.424H313.328L310.948 50.188C310.929 50.2627 310.92 50.314 310.92 50.342C310.92 50.4167 310.943 50.4727 310.99 50.51C311.046 50.538 311.125 50.552 311.228 50.552H312.6L312.488 51H307.756L307.868 50.552Z" fill="black"/>
<path d="M300.952 370.384C299.672 370.384 298.637 369.861 297.848 368.816C297.059 367.749 296.664 366.459 296.664 364.944C296.664 363.664 296.899 362.405 297.368 361.168C297.837 359.909 298.541 358.789 299.48 357.808C300.227 357.019 300.973 356.421 301.72 356.016C302.488 355.611 303.341 355.408 304.28 355.408C305.091 355.408 305.805 355.664 306.424 356.176C307.043 356.688 307.352 357.499 307.352 358.608C307.352 359.248 307.171 359.781 306.808 360.208C306.467 360.635 306.04 360.848 305.528 360.848C305.123 360.848 304.813 360.731 304.6 360.496C304.387 360.24 304.28 359.952 304.28 359.632C304.28 359.013 304.621 358.459 305.304 357.968C305.539 357.776 305.656 357.499 305.656 357.136C305.656 356.944 305.539 356.741 305.304 356.528C305.069 356.293 304.685 356.176 304.152 356.176C302.488 356.176 301.037 358.032 299.8 361.744C299.565 362.448 299.363 363.333 299.192 364.4C299.043 365.445 298.968 366.267 298.968 366.864C298.968 367.803 299.171 368.496 299.576 368.944C300.003 369.392 300.515 369.616 301.112 369.616C302.435 369.616 303.512 369.083 304.344 368.016C305.176 366.949 305.763 365.957 306.104 365.04L306.776 365.264C306.264 366.715 305.485 367.931 304.44 368.912C303.395 369.893 302.232 370.384 300.952 370.384Z" fill="black"/>
<path d="M315.862 375.168C315.61 375.168 315.395 375.056 315.218 374.832C315.05 374.608 314.966 374.272 314.966 373.824C314.966 373.619 314.994 373.376 315.05 373.096C315.106 372.807 315.171 372.573 315.246 372.396L316.142 370.31C316.189 370.207 316.235 370.072 316.282 369.904C316.338 369.736 316.366 369.596 316.366 369.484C316.366 369.353 316.338 369.246 316.282 369.162C316.235 369.078 316.161 369.036 316.058 369.036C315.498 369.036 314.905 369.563 314.28 370.618C313.907 371.253 313.571 371.883 313.272 372.508C312.983 373.133 312.777 373.656 312.656 374.076L312.376 375H311.452L312.614 370.674C312.633 370.609 312.675 370.459 312.74 370.226C312.815 369.983 312.852 369.769 312.852 369.582C312.852 369.218 312.703 369.036 312.404 369.036C312.161 369.036 311.83 369.349 311.41 369.974C310.99 370.599 310.579 371.323 310.178 372.144C309.786 372.965 309.52 373.609 309.38 374.076L309.1 375H308.176L309.352 370.674C309.492 370.114 309.562 369.717 309.562 369.484C309.562 369.353 309.543 369.255 309.506 369.19C309.469 369.125 309.399 369.092 309.296 369.092C308.82 369.092 308.316 369.839 307.784 371.332L307.504 371.248C308.12 369.493 308.801 368.616 309.548 368.616C310.099 368.616 310.374 369.097 310.374 370.058C310.374 370.217 310.332 370.492 310.248 370.884C310.164 371.276 310.08 371.561 309.996 371.738L310.052 371.78L310.22 371.472C310.64 370.669 311.046 369.993 311.438 369.442C311.839 368.891 312.222 368.616 312.586 368.616C313.305 368.616 313.664 369.059 313.664 369.946C313.664 370.142 313.617 370.427 313.524 370.8C313.44 371.173 313.361 371.486 313.286 371.738L313.328 371.78L313.524 371.43C313.935 370.637 314.35 369.969 314.77 369.428C315.199 368.887 315.671 368.616 316.184 368.616C316.464 368.616 316.683 368.733 316.842 368.966C317.01 369.19 317.094 369.521 317.094 369.96C317.094 370.165 317.066 370.417 317.01 370.716C316.954 371.005 316.889 371.229 316.814 371.388L315.918 373.474C315.871 373.577 315.82 373.712 315.764 373.88C315.717 374.048 315.694 374.188 315.694 374.3C315.694 374.431 315.722 374.538 315.778 374.622C315.834 374.706 315.913 374.748 316.016 374.748C316.333 374.748 316.637 374.505 316.926 374.02C317.215 373.535 317.463 373.012 317.668 372.452L317.948 372.536C317.696 373.292 317.388 373.922 317.024 374.426C316.669 374.921 316.282 375.168 315.862 375.168Z" fill="black"/>
<path d="M302.952 241.384C301.672 241.384 300.637 240.861 299.848 239.816C299.059 238.749 298.664 237.459 298.664 235.944C298.664 234.664 298.899 233.405 299.368 232.168C299.837 230.909 300.541 229.789 301.48 228.808C302.227 228.019 302.973 227.421 303.72 227.016C304.488 226.611 305.341 226.408 306.28 226.408C307.091 226.408 307.805 226.664 308.424 227.176C309.043 227.688 309.352 228.499 309.352 229.608C309.352 230.248 309.171 230.781 308.808 231.208C308.467 231.635 308.04 231.848 307.528 231.848C307.123 231.848 306.813 231.731 306.6 231.496C306.387 231.24 306.28 230.952 306.28 230.632C306.28 230.013 306.621 229.459 307.304 228.968C307.539 228.776 307.656 228.499 307.656 228.136C307.656 227.944 307.539 227.741 307.304 227.528C307.069 227.293 306.685 227.176 306.152 227.176C304.488 227.176 303.037 229.032 301.8 232.744C301.565 233.448 301.363 234.333 301.192 235.4C301.043 236.445 300.968 237.267 300.968 237.864C300.968 238.803 301.171 239.496 301.576 239.944C302.003 240.392 302.515 240.616 303.112 240.616C304.435 240.616 305.512 240.083 306.344 239.016C307.176 237.949 307.763 236.957 308.104 236.04L308.776 236.264C308.264 237.715 307.485 238.931 306.44 239.912C305.395 240.893 304.232 241.384 302.952 241.384Z" fill="black"/>
<path d="M313.088 237.796C312.883 237.796 312.71 237.726 312.57 237.586C312.43 237.446 312.36 237.273 312.36 237.068C312.36 236.853 312.43 236.681 312.57 236.55C312.71 236.41 312.883 236.34 313.088 236.34C313.303 236.34 313.475 236.41 313.606 236.55C313.746 236.681 313.816 236.853 313.816 237.068C313.816 237.273 313.746 237.446 313.606 237.586C313.475 237.726 313.303 237.796 313.088 237.796ZM308.818 249.472C308.538 249.472 308.272 249.369 308.02 249.164C307.768 248.959 307.642 248.665 307.642 248.282C307.642 248.021 307.731 247.797 307.908 247.61C308.076 247.423 308.267 247.33 308.482 247.33C308.65 247.33 308.781 247.377 308.874 247.47C308.967 247.573 309.014 247.703 309.014 247.862C309.014 248.105 308.907 248.291 308.692 248.422C308.617 248.469 308.561 248.511 308.524 248.548C308.487 248.595 308.468 248.66 308.468 248.744C308.468 249.005 308.613 249.136 308.902 249.136C309.173 249.136 309.425 249.029 309.658 248.814C309.891 248.609 310.078 248.263 310.218 247.778L310.372 247.092L310.568 246.294L311.856 241.548C311.865 241.492 311.898 241.357 311.954 241.142C312.019 240.927 312.052 240.717 312.052 240.512C312.052 240.4 312.024 240.302 311.968 240.218C311.921 240.134 311.847 240.092 311.744 240.092C311.445 240.092 311.142 240.335 310.834 240.82C310.535 241.296 310.279 241.837 310.064 242.444L309.784 242.36C310.027 241.651 310.339 241.016 310.722 240.456C311.105 239.896 311.539 239.616 312.024 239.616C312.36 239.616 312.593 239.728 312.724 239.952C312.855 240.167 312.92 240.4 312.92 240.652C312.92 240.923 312.869 241.277 312.766 241.716L311.422 246.644C311.291 247.12 311.095 247.573 310.834 248.002C310.573 248.441 310.265 248.795 309.91 249.066C309.565 249.337 309.201 249.472 308.818 249.472Z" fill="black"/>
<path d="M300.952 111.384C299.672 111.384 298.637 110.861 297.848 109.816C297.059 108.749 296.664 107.459 296.664 105.944C296.664 104.664 296.899 103.405 297.368 102.168C297.837 100.909 298.541 99.7893 299.48 98.808C300.227 98.0187 300.973 97.4213 301.72 97.016C302.488 96.6107 303.341 96.408 304.28 96.408C305.091 96.408 305.805 96.664 306.424 97.176C307.043 97.688 307.352 98.4987 307.352 99.608C307.352 100.248 307.171 100.781 306.808 101.208C306.467 101.635 306.04 101.848 305.528 101.848C305.123 101.848 304.813 101.731 304.6 101.496C304.387 101.24 304.28 100.952 304.28 100.632C304.28 100.013 304.621 99.4587 305.304 98.968C305.539 98.776 305.656 98.4987 305.656 98.136C305.656 97.944 305.539 97.7413 305.304 97.528C305.069 97.2933 304.685 97.176 304.152 97.176C302.488 97.176 301.037 99.032 299.8 102.744C299.565 103.448 299.363 104.333 299.192 105.4C299.043 106.445 298.968 107.267 298.968 107.864C298.968 108.803 299.171 109.496 299.576 109.944C300.003 110.392 300.515 110.616 301.112 110.616C302.435 110.616 303.512 110.083 304.344 109.016C305.176 107.949 305.763 106.957 306.104 106.04L306.776 106.264C306.264 107.715 305.485 108.931 304.44 109.912C303.395 110.893 302.232 111.384 300.952 111.384Z" fill="black"/>
<path d="M311.27 116.238C310.887 116.238 310.565 116.14 310.304 115.944C310.052 115.748 309.805 115.482 309.562 115.146C309.375 114.894 309.207 114.707 309.058 114.586C308.918 114.465 308.764 114.404 308.596 114.404C308.4 114.404 308.255 114.446 308.162 114.53C308.078 114.614 308.036 114.777 308.036 115.02C308.036 115.141 308.069 115.225 308.134 115.272C308.218 115.347 308.279 115.417 308.316 115.482C308.353 115.538 308.372 115.603 308.372 115.678C308.372 115.79 308.339 115.893 308.274 115.986C308.209 116.07 308.101 116.112 307.952 116.112C307.793 116.112 307.667 116.07 307.574 115.986C307.49 115.893 307.448 115.776 307.448 115.636C307.448 115.039 307.616 114.488 307.952 113.984C308.288 113.471 308.783 113.046 309.436 112.71L311.34 111.59C311.928 111.245 312.446 110.783 312.894 110.204C313.351 109.625 313.58 109.037 313.58 108.44C313.58 107.945 313.454 107.525 313.202 107.18C312.95 106.825 312.53 106.648 311.942 106.648C311.597 106.648 311.251 106.746 310.906 106.942C310.57 107.138 310.29 107.381 310.066 107.67C309.842 107.95 309.73 108.207 309.73 108.44C309.73 108.748 309.809 108.902 309.968 108.902C310.024 108.902 310.099 108.874 310.192 108.818C310.323 108.753 310.435 108.72 310.528 108.72C310.733 108.72 310.887 108.781 310.99 108.902C311.093 109.023 311.144 109.177 311.144 109.364C311.144 109.607 311.055 109.817 310.878 109.994C310.701 110.171 310.472 110.26 310.192 110.26C309.94 110.26 309.707 110.148 309.492 109.924C309.287 109.691 309.184 109.387 309.184 109.014C309.184 108.482 309.324 108.001 309.604 107.572C309.893 107.143 310.257 106.807 310.696 106.564C311.144 106.321 311.601 106.2 312.068 106.2C312.945 106.2 313.641 106.433 314.154 106.9C314.667 107.357 314.924 107.955 314.924 108.692C314.924 109.261 314.747 109.765 314.392 110.204C314.037 110.643 313.631 110.997 313.174 111.268C312.726 111.539 312.213 111.809 311.634 112.08L310.024 112.822C309.567 113.027 309.217 113.242 308.974 113.466C308.741 113.681 308.624 113.858 308.624 113.998C308.885 113.998 309.263 114.105 309.758 114.32C310.113 114.46 310.435 114.572 310.724 114.656C311.013 114.74 311.307 114.782 311.606 114.782C311.97 114.782 312.297 114.703 312.586 114.544C312.885 114.385 313.099 114.147 313.23 113.83L313.496 113.186H313.762C313.613 113.979 313.333 114.689 312.922 115.314C312.511 115.93 311.961 116.238 311.27 116.238Z" fill="black"/>
<path d="M29.696 370.384C29.0133 370.384 28.4053 370.117 27.872 369.584C27.36 369.029 27.104 368.272 27.104 367.312C27.104 366.843 27.168 366.277 27.296 365.616C27.424 364.933 27.5733 364.411 27.744 364.048L29.792 359.28C29.8987 359.045 30.0053 358.736 30.112 358.352C30.24 357.968 30.304 357.648 30.304 357.392C30.304 357.093 30.24 356.848 30.112 356.656C29.984 356.464 29.8027 356.368 29.568 356.368C28.8427 356.368 28.1493 356.923 27.488 358.032C26.8267 359.141 26.2613 360.336 25.792 361.616L25.152 361.424C25.728 359.696 26.4213 358.267 27.232 357.136C28.064 355.984 28.96 355.408 29.92 355.408C30.496 355.408 30.976 355.664 31.36 356.176C31.7653 356.688 31.968 357.456 31.968 358.48C31.968 358.949 31.904 359.515 31.776 360.176C31.648 360.816 31.4987 361.339 31.328 361.744L29.28 366.512C29.1733 366.747 29.056 367.056 28.928 367.44C28.8213 367.824 28.768 368.144 28.768 368.4C28.768 368.827 28.864 369.136 29.056 369.328C29.248 369.52 29.5893 369.616 30.08 369.616C31.4027 369.616 32.6187 369.051 33.728 367.92C34.8373 366.789 35.712 365.467 36.352 363.952C36.992 362.416 37.312 361.125 37.312 360.08C37.312 359.675 37.216 359.387 37.024 359.216C36.8533 359.045 36.6293 358.928 36.352 358.864C35.9467 358.779 35.552 358.576 35.168 358.256C34.8053 357.936 34.624 357.52 34.624 357.008C34.624 356.517 34.7627 356.133 35.04 355.856C35.3387 355.557 35.7227 355.408 36.192 355.408C36.9813 355.408 37.5573 355.771 37.92 356.496C38.2827 357.2 38.464 358.032 38.464 358.992C38.464 360.101 38.1333 361.573 37.472 363.408C36.832 365.221 35.8507 366.843 34.528 368.272C33.2053 369.68 31.5947 370.384 29.696 370.384Z" fill="black"/>
<path d="M44.586 375.168C44.334 375.168 44.1193 375.056 43.942 374.832C43.774 374.608 43.69 374.272 43.69 373.824C43.69 373.619 43.718 373.376 43.774 373.096C43.83 372.807 43.8953 372.573 43.97 372.396L44.866 370.31C44.9127 370.207 44.9593 370.072 45.006 369.904C45.062 369.736 45.09 369.596 45.09 369.484C45.09 369.353 45.062 369.246 45.006 369.162C44.9593 369.078 44.8847 369.036 44.782 369.036C44.222 369.036 43.6293 369.563 43.004 370.618C42.6307 371.253 42.2947 371.883 41.996 372.508C41.7067 373.133 41.5013 373.656 41.38 374.076L41.1 375H40.176L41.352 370.66C41.492 370.1 41.562 369.703 41.562 369.47C41.562 369.339 41.5433 369.246 41.506 369.19C41.4687 369.125 41.3987 369.092 41.296 369.092C41.0347 369.092 40.7687 369.311 40.498 369.75C40.2367 370.179 39.9987 370.707 39.784 371.332L39.504 371.248C40.12 369.493 40.806 368.616 41.562 368.616C42.1033 368.616 42.374 369.092 42.374 370.044C42.374 370.231 42.3273 370.52 42.234 370.912C42.15 371.295 42.0753 371.57 42.01 371.738L42.052 371.78L42.248 371.43C42.6587 370.637 43.074 369.969 43.494 369.428C43.9233 368.887 44.3947 368.616 44.908 368.616C45.188 368.616 45.4073 368.733 45.566 368.966C45.734 369.19 45.818 369.521 45.818 369.96C45.818 370.165 45.79 370.417 45.734 370.716C45.678 371.005 45.6127 371.229 45.538 371.388L44.642 373.474C44.5953 373.577 44.544 373.712 44.488 373.88C44.4413 374.048 44.418 374.188 44.418 374.3C44.418 374.431 44.446 374.538 44.502 374.622C44.558 374.706 44.6373 374.748 44.74 374.748C45.0573 374.748 45.3607 374.505 45.65 374.02C45.9393 373.535 46.1867 373.012 46.392 372.452L46.672 372.536C46.42 373.292 46.112 373.922 45.748 374.426C45.3933 374.921 45.006 375.168 44.586 375.168Z" fill="black"/>
<path d="M29.696 241.384C29.0133 241.384 28.4053 241.117 27.872 240.584C27.36 240.029 27.104 239.272 27.104 238.312C27.104 237.843 27.168 237.277 27.296 236.616C27.424 235.933 27.5733 235.411 27.744 235.048L29.792 230.28C29.8987 230.045 30.0053 229.736 30.112 229.352C30.24 228.968 30.304 228.648 30.304 228.392C30.304 228.093 30.24 227.848 30.112 227.656C29.984 227.464 29.8027 227.368 29.568 227.368C28.8427 227.368 28.1493 227.923 27.488 229.032C26.8267 230.141 26.2613 231.336 25.792 232.616L25.152 232.424C25.728 230.696 26.4213 229.267 27.232 228.136C28.064 226.984 28.96 226.408 29.92 226.408C30.496 226.408 30.976 226.664 31.36 227.176C31.7653 227.688 31.968 228.456 31.968 229.48C31.968 229.949 31.904 230.515 31.776 231.176C31.648 231.816 31.4987 232.339 31.328 232.744L29.28 237.512C29.1733 237.747 29.056 238.056 28.928 238.44C28.8213 238.824 28.768 239.144 28.768 239.4C28.768 239.827 28.864 240.136 29.056 240.328C29.248 240.52 29.5893 240.616 30.08 240.616C31.4027 240.616 32.6187 240.051 33.728 238.92C34.8373 237.789 35.712 236.467 36.352 234.952C36.992 233.416 37.312 232.125 37.312 231.08C37.312 230.675 37.216 230.387 37.024 230.216C36.8533 230.045 36.6293 229.928 36.352 229.864C35.9467 229.779 35.552 229.576 35.168 229.256C34.8053 228.936 34.624 228.52 34.624 228.008C34.624 227.517 34.7627 227.133 35.04 226.856C35.3387 226.557 35.7227 226.408 36.192 226.408C36.9813 226.408 37.5573 226.771 37.92 227.496C38.2827 228.2 38.464 229.032 38.464 229.992C38.464 231.101 38.1333 232.573 37.472 234.408C36.832 236.221 35.8507 237.843 34.528 239.272C33.2053 240.68 31.5947 241.384 29.696 241.384Z" fill="black"/>
<path d="M42.752 237.796C42.5467 237.796 42.374 237.726 42.234 237.586C42.094 237.446 42.024 237.273 42.024 237.068C42.024 236.853 42.094 236.681 42.234 236.55C42.374 236.41 42.5467 236.34 42.752 236.34C42.9667 236.34 43.1393 236.41 43.27 236.55C43.41 236.681 43.48 236.853 43.48 237.068C43.48 237.273 43.41 237.446 43.27 237.586C43.1393 237.726 42.9667 237.796 42.752 237.796ZM41.254 246.168C41.002 246.168 40.7873 246.056 40.61 245.832C40.442 245.608 40.358 245.272 40.358 244.824C40.358 244.619 40.386 244.376 40.442 244.096C40.498 243.807 40.5633 243.573 40.638 243.396L41.534 241.31C41.5807 241.207 41.6273 241.072 41.674 240.904C41.73 240.736 41.758 240.596 41.758 240.484C41.758 240.353 41.73 240.246 41.674 240.162C41.6273 240.078 41.5527 240.036 41.45 240.036C41.1327 240.036 40.8247 240.279 40.526 240.764C40.2367 241.249 39.9893 241.772 39.784 242.332L39.504 242.248C39.756 241.501 40.064 240.876 40.428 240.372C40.792 239.868 41.184 239.616 41.604 239.616C41.8467 239.616 42.052 239.733 42.22 239.966C42.3973 240.199 42.486 240.531 42.486 240.96C42.486 241.165 42.458 241.417 42.402 241.716C42.346 242.005 42.2807 242.229 42.206 242.388L41.31 244.474C41.2633 244.577 41.212 244.712 41.156 244.88C41.1093 245.048 41.086 245.188 41.086 245.3C41.086 245.431 41.114 245.538 41.17 245.622C41.226 245.706 41.3053 245.748 41.408 245.748C41.7253 245.748 42.0287 245.505 42.318 245.02C42.6073 244.535 42.8547 244.012 43.06 243.452L43.34 243.536C43.088 244.292 42.78 244.922 42.416 245.426C42.0613 245.921 41.674 246.168 41.254 246.168Z" fill="black"/>
<path d="M29.696 111.384C29.0133 111.384 28.4053 111.117 27.872 110.584C27.36 110.029 27.104 109.272 27.104 108.312C27.104 107.843 27.168 107.277 27.296 106.616C27.424 105.933 27.5733 105.411 27.744 105.048L29.792 100.28C29.8987 100.045 30.0053 99.736 30.112 99.352C30.24 98.968 30.304 98.648 30.304 98.392C30.304 98.0933 30.24 97.848 30.112 97.656C29.984 97.464 29.8027 97.368 29.568 97.368C28.8427 97.368 28.1493 97.9227 27.488 99.032C26.8267 100.141 26.2613 101.336 25.792 102.616L25.152 102.424C25.728 100.696 26.4213 99.2667 27.232 98.136C28.064 96.984 28.96 96.408 29.92 96.408C30.496 96.408 30.976 96.664 31.36 97.176C31.7653 97.688 31.968 98.456 31.968 99.48C31.968 99.9493 31.904 100.515 31.776 101.176C31.648 101.816 31.4987 102.339 31.328 102.744L29.28 107.512C29.1733 107.747 29.056 108.056 28.928 108.44C28.8213 108.824 28.768 109.144 28.768 109.4C28.768 109.827 28.864 110.136 29.056 110.328C29.248 110.52 29.5893 110.616 30.08 110.616C31.4027 110.616 32.6187 110.051 33.728 108.92C34.8373 107.789 35.712 106.467 36.352 104.952C36.992 103.416 37.312 102.125 37.312 101.08C37.312 100.675 37.216 100.387 37.024 100.216C36.8533 100.045 36.6293 99.928 36.352 99.864C35.9467 99.7787 35.552 99.576 35.168 99.256C34.8053 98.936 34.624 98.52 34.624 98.008C34.624 97.5173 34.7627 97.1333 35.04 96.856C35.3387 96.5573 35.7227 96.408 36.192 96.408C36.9813 96.408 37.5573 96.7707 37.92 97.496C38.2827 98.2 38.464 99.032 38.464 99.992C38.464 101.101 38.1333 102.573 37.472 104.408C36.832 106.221 35.8507 107.843 34.528 109.272C33.2053 110.68 31.5947 111.384 29.696 111.384Z" fill="black"/>
<path d="M43.27 116.238C42.8873 116.238 42.5653 116.14 42.304 115.944C42.052 115.748 41.8047 115.482 41.562 115.146C41.3753 114.894 41.2073 114.707 41.058 114.586C40.918 114.465 40.764 114.404 40.596 114.404C40.4 114.404 40.2553 114.446 40.162 114.53C40.078 114.614 40.036 114.777 40.036 115.02C40.036 115.141 40.0687 115.225 40.134 115.272C40.218 115.347 40.2787 115.417 40.316 115.482C40.3533 115.538 40.372 115.603 40.372 115.678C40.372 115.79 40.3393 115.893 40.274 115.986C40.2087 116.07 40.1013 116.112 39.952 116.112C39.7933 116.112 39.6673 116.07 39.574 115.986C39.49 115.893 39.448 115.776 39.448 115.636C39.448 115.039 39.616 114.488 39.952 113.984C40.288 113.471 40.7827 113.046 41.436 112.71L43.34 111.59C43.928 111.245 44.446 110.783 44.894 110.204C45.3513 109.625 45.58 109.037 45.58 108.44C45.58 107.945 45.454 107.525 45.202 107.18C44.95 106.825 44.53 106.648 43.942 106.648C43.5967 106.648 43.2513 106.746 42.906 106.942C42.57 107.138 42.29 107.381 42.066 107.67C41.842 107.95 41.73 108.207 41.73 108.44C41.73 108.748 41.8093 108.902 41.968 108.902C42.024 108.902 42.0987 108.874 42.192 108.818C42.3227 108.753 42.4347 108.72 42.528 108.72C42.7333 108.72 42.8873 108.781 42.99 108.902C43.0927 109.023 43.144 109.177 43.144 109.364C43.144 109.607 43.0553 109.817 42.878 109.994C42.7007 110.171 42.472 110.26 42.192 110.26C41.94 110.26 41.7067 110.148 41.492 109.924C41.2867 109.691 41.184 109.387 41.184 109.014C41.184 108.482 41.324 108.001 41.604 107.572C41.8933 107.143 42.2573 106.807 42.696 106.564C43.144 106.321 43.6013 106.2 44.068 106.2C44.9453 106.2 45.6407 106.433 46.154 106.9C46.6673 107.357 46.924 107.955 46.924 108.692C46.924 109.261 46.7467 109.765 46.392 110.204C46.0373 110.643 45.6313 110.997 45.174 111.268C44.726 111.539 44.2127 111.809 43.634 112.08L42.024 112.822C41.5667 113.027 41.2167 113.242 40.974 113.466C40.7407 113.681 40.624 113.858 40.624 113.998C40.8853 113.998 41.2633 114.105 41.758 114.32C42.1127 114.46 42.4347 114.572 42.724 114.656C43.0133 114.74 43.3073 114.782 43.606 114.782C43.97 114.782 44.2967 114.703 44.586 114.544C44.8847 114.385 45.0993 114.147 45.23 113.83L45.496 113.186H45.762C45.6127 113.979 45.3327 114.689 44.922 115.314C44.5113 115.93 43.9607 116.238 43.27 116.238Z" fill="black"/>
<path d="M175.752 251.796C175.547 251.796 175.374 251.726 175.234 251.586C175.094 251.446 175.024 251.273 175.024 251.068C175.024 250.853 175.094 250.681 175.234 250.55C175.374 250.41 175.547 250.34 175.752 250.34C175.967 250.34 176.139 250.41 176.27 250.55C176.41 250.681 176.48 250.853 176.48 251.068C176.48 251.273 176.41 251.446 176.27 251.586C176.139 251.726 175.967 251.796 175.752 251.796ZM174.254 260.168C174.002 260.168 173.787 260.056 173.61 259.832C173.442 259.608 173.358 259.272 173.358 258.824C173.358 258.619 173.386 258.376 173.442 258.096C173.498 257.807 173.563 257.573 173.638 257.396L174.534 255.31C174.581 255.207 174.627 255.072 174.674 254.904C174.73 254.736 174.758 254.596 174.758 254.484C174.758 254.353 174.73 254.246 174.674 254.162C174.627 254.078 174.553 254.036 174.45 254.036C174.133 254.036 173.825 254.279 173.526 254.764C173.237 255.249 172.989 255.772 172.784 256.332L172.504 256.248C172.756 255.501 173.064 254.876 173.428 254.372C173.792 253.868 174.184 253.616 174.604 253.616C174.847 253.616 175.052 253.733 175.22 253.966C175.397 254.199 175.486 254.531 175.486 254.96C175.486 255.165 175.458 255.417 175.402 255.716C175.346 256.005 175.281 256.229 175.206 256.388L174.31 258.474C174.263 258.577 174.212 258.712 174.156 258.88C174.109 259.048 174.086 259.188 174.086 259.3C174.086 259.431 174.114 259.538 174.17 259.622C174.226 259.706 174.305 259.748 174.408 259.748C174.725 259.748 175.029 259.505 175.318 259.02C175.607 258.535 175.855 258.012 176.06 257.452L176.34 257.536C176.088 258.292 175.78 258.922 175.416 259.426C175.061 259.921 174.674 260.168 174.254 260.168Z" fill="black"/>
<path d="M167.318 255.14C166.683 255.14 166.151 254.977 165.722 254.65C165.293 254.314 164.994 253.847 164.826 253.25C164.658 252.643 164.639 251.939 164.77 251.136C164.863 250.576 164.999 250.091 165.176 249.68C165.363 249.269 165.587 248.924 165.848 248.644C166.119 248.364 166.422 248.14 166.758 247.972C167.094 247.804 167.463 247.683 167.864 247.608C168.265 247.533 168.695 247.496 169.152 247.496H172.33L172.106 248.546H170.566C170.855 248.891 171.051 249.311 171.154 249.806C171.257 250.301 171.252 250.884 171.14 251.556C171.075 251.957 170.967 252.34 170.818 252.704C170.669 253.068 170.482 253.399 170.258 253.698C170.034 253.997 169.773 254.253 169.474 254.468C169.185 254.683 168.858 254.851 168.494 254.972C168.13 255.084 167.738 255.14 167.318 255.14ZM167.528 254.118C167.799 254.118 168.046 254.081 168.27 254.006C168.494 253.922 168.695 253.805 168.872 253.656C169.049 253.497 169.203 253.315 169.334 253.11C169.465 252.905 169.572 252.671 169.656 252.41C169.749 252.149 169.819 251.873 169.866 251.584C169.941 251.183 169.969 250.805 169.95 250.45C169.941 250.086 169.889 249.745 169.796 249.428C169.703 249.111 169.567 248.817 169.39 248.546H168.956C168.545 248.546 168.177 248.593 167.85 248.686C167.523 248.77 167.239 248.915 166.996 249.12C166.753 249.325 166.548 249.605 166.38 249.96C166.221 250.305 166.1 250.744 166.016 251.276C165.941 251.799 165.937 252.279 166.002 252.718C166.077 253.147 166.235 253.488 166.478 253.74C166.73 253.992 167.08 254.118 167.528 254.118Z" fill="black"/>
<path d="M198.088 251.796C197.883 251.796 197.71 251.726 197.57 251.586C197.43 251.446 197.36 251.273 197.36 251.068C197.36 250.853 197.43 250.681 197.57 250.55C197.71 250.41 197.883 250.34 198.088 250.34C198.303 250.34 198.475 250.41 198.606 250.55C198.746 250.681 198.816 250.853 198.816 251.068C198.816 251.273 198.746 251.446 198.606 251.586C198.475 251.726 198.303 251.796 198.088 251.796ZM193.818 263.472C193.538 263.472 193.272 263.369 193.02 263.164C192.768 262.959 192.642 262.665 192.642 262.282C192.642 262.021 192.731 261.797 192.908 261.61C193.076 261.423 193.267 261.33 193.482 261.33C193.65 261.33 193.781 261.377 193.874 261.47C193.967 261.573 194.014 261.703 194.014 261.862C194.014 262.105 193.907 262.291 193.692 262.422C193.617 262.469 193.561 262.511 193.524 262.548C193.487 262.595 193.468 262.66 193.468 262.744C193.468 263.005 193.613 263.136 193.902 263.136C194.173 263.136 194.425 263.029 194.658 262.814C194.891 262.609 195.078 262.263 195.218 261.778L195.372 261.092L195.568 260.294L196.856 255.548C196.865 255.492 196.898 255.357 196.954 255.142C197.019 254.927 197.052 254.717 197.052 254.512C197.052 254.4 197.024 254.302 196.968 254.218C196.921 254.134 196.847 254.092 196.744 254.092C196.445 254.092 196.142 254.335 195.834 254.82C195.535 255.296 195.279 255.837 195.064 256.444L194.784 256.36C195.027 255.651 195.339 255.016 195.722 254.456C196.105 253.896 196.539 253.616 197.024 253.616C197.36 253.616 197.593 253.728 197.724 253.952C197.855 254.167 197.92 254.4 197.92 254.652C197.92 254.923 197.869 255.277 197.766 255.716L196.422 260.644C196.291 261.12 196.095 261.573 195.834 262.002C195.573 262.441 195.265 262.795 194.91 263.066C194.565 263.337 194.201 263.472 193.818 263.472Z" fill="black"/>
<path d="M184.88 259.96C183.693 258.867 182.74 257.52 182.02 255.92C181.313 254.307 180.96 252.56 180.96 250.68C180.96 248.8 181.313 247.06 182.02 245.46C182.74 243.847 183.693 242.493 184.88 241.4L185.48 241.88C184.293 243.12 183.407 244.467 182.82 245.92C182.247 247.373 181.96 248.96 181.96 250.68C181.96 252.4 182.247 253.987 182.82 255.44C183.407 256.893 184.293 258.24 185.48 259.48L184.88 259.96ZM190.122 256.24C189.322 256.24 188.676 255.913 188.182 255.26C187.689 254.593 187.442 253.787 187.442 252.84C187.442 252.04 187.589 251.253 187.882 250.48C188.176 249.693 188.616 248.993 189.202 248.38C189.669 247.887 190.136 247.513 190.602 247.26C191.082 247.007 191.616 246.88 192.202 246.88C192.709 246.88 193.156 247.04 193.542 247.36C193.929 247.68 194.122 248.187 194.122 248.88C194.122 249.28 194.009 249.613 193.782 249.88C193.569 250.147 193.302 250.28 192.982 250.28C192.729 250.28 192.536 250.207 192.402 250.06C192.269 249.9 192.202 249.72 192.202 249.52C192.202 249.133 192.416 248.787 192.842 248.48C192.989 248.36 193.062 248.187 193.062 247.96C193.062 247.84 192.989 247.713 192.842 247.58C192.696 247.433 192.456 247.36 192.122 247.36C191.082 247.36 190.176 248.52 189.402 250.84C189.256 251.28 189.129 251.833 189.022 252.5C188.929 253.153 188.882 253.667 188.882 254.04C188.882 254.627 189.009 255.06 189.262 255.34C189.529 255.62 189.849 255.76 190.222 255.76C191.049 255.76 191.722 255.427 192.242 254.76C192.762 254.093 193.129 253.473 193.342 252.9L193.762 253.04C193.442 253.947 192.956 254.707 192.302 255.32C191.649 255.933 190.922 256.24 190.122 256.24ZM201.444 259.48C202.631 258.24 203.511 256.893 204.084 255.44C204.671 253.987 204.964 252.4 204.964 250.68C204.964 248.96 204.671 247.373 204.084 245.92C203.511 244.467 202.631 243.12 201.444 241.88L202.044 241.4C203.231 242.493 204.178 243.847 204.884 245.46C205.604 247.06 205.964 248.8 205.964 250.68C205.964 252.56 205.604 254.307 204.884 255.92C204.178 257.52 203.231 258.867 202.044 259.96L201.444 259.48Z" fill="black"/>
<path d="M181.253 330.152C181.081 330.04 180.974 329.887 180.934 329.694C180.893 329.5 180.928 329.317 181.04 329.145C181.158 328.965 181.311 328.859 181.499 328.826C181.693 328.785 181.876 328.82 182.048 328.933C182.228 329.05 182.334 329.203 182.367 329.391C182.413 329.577 182.377 329.76 182.26 329.94C182.148 330.112 181.995 330.218 181.802 330.259C181.616 330.305 181.433 330.27 181.253 330.152ZM175.427 336.348C175.216 336.211 175.097 336 175.071 335.715C175.052 335.436 175.165 335.108 175.41 334.733C175.522 334.561 175.678 334.373 175.878 334.169C176.083 333.957 176.265 333.797 176.424 333.69L178.314 332.431C178.409 332.371 178.522 332.283 178.653 332.168C178.791 332.057 178.891 331.955 178.952 331.862C179.024 331.752 179.059 331.647 179.058 331.546C179.065 331.45 179.025 331.374 178.939 331.318C178.673 331.145 178.283 331.18 177.767 331.423C177.26 331.672 176.767 331.975 176.29 332.332L176.101 332.109C176.72 331.621 177.319 331.265 177.899 331.042C178.479 330.818 178.946 330.821 179.297 331.05C179.501 331.183 179.609 331.393 179.622 331.68C179.643 331.972 179.537 332.298 179.302 332.658C179.19 332.83 179.029 333.026 178.819 333.245C178.614 333.457 178.437 333.609 178.288 333.701L176.398 334.96C176.303 335.02 176.186 335.106 176.048 335.216C175.917 335.331 175.821 335.436 175.76 335.529C175.688 335.639 175.653 335.744 175.654 335.845C175.655 335.946 175.699 336.024 175.785 336.08C176.051 336.254 176.437 336.216 176.945 335.967C177.452 335.719 177.945 335.416 178.423 335.059L178.611 335.282C177.987 335.778 177.385 336.138 176.805 336.361C176.238 336.582 175.778 336.578 175.427 336.348Z" fill="black"/>
<path d="M172.361 328.349C171.83 328.002 171.473 327.575 171.292 327.067C171.115 326.551 171.12 325.997 171.305 325.405C171.496 324.805 171.865 324.204 172.413 323.603C172.797 323.185 173.175 322.852 173.548 322.605C173.929 322.363 174.305 322.196 174.677 322.104C175.056 322.017 175.433 321.995 175.806 322.038C176.179 322.081 176.554 322.18 176.931 322.337C177.308 322.493 177.688 322.697 178.071 322.946L180.734 324.681L179.973 325.439L178.683 324.598C178.737 325.045 178.671 325.504 178.487 325.975C178.303 326.445 177.981 326.931 177.52 327.433C177.246 327.734 176.947 327.996 176.624 328.219C176.3 328.442 175.962 328.618 175.612 328.746C175.261 328.874 174.902 328.946 174.534 328.963C174.175 328.985 173.809 328.947 173.438 328.85C173.072 328.745 172.713 328.578 172.361 328.349ZM173.095 327.607C173.322 327.755 173.55 327.859 173.778 327.919C174.011 327.97 174.243 327.982 174.473 327.954C174.709 327.918 174.937 327.85 175.159 327.749C175.38 327.648 175.597 327.511 175.811 327.338C176.031 327.17 176.24 326.978 176.438 326.761C176.719 326.465 176.949 326.164 177.127 325.857C177.318 325.547 177.461 325.233 177.556 324.916C177.651 324.6 177.698 324.279 177.698 323.956L177.334 323.719C176.99 323.495 176.656 323.332 176.331 323.232C176.011 323.124 175.694 323.09 175.378 323.13C175.063 323.169 174.738 323.292 174.404 323.497C174.082 323.7 173.741 324.001 173.38 324.401C173.032 324.798 172.766 325.198 172.581 325.601C172.409 326.002 172.356 326.374 172.422 326.717C172.495 327.066 172.72 327.363 173.095 327.607Z" fill="black"/>
<path d="M199.394 351.969C199.183 351.831 199.064 351.62 199.038 351.336C199.019 351.056 199.132 350.729 199.377 350.354C199.489 350.182 199.645 349.994 199.845 349.79C200.05 349.578 200.232 349.418 200.391 349.31L202.281 348.052C202.376 347.991 202.489 347.903 202.62 347.788C202.758 347.678 202.858 347.576 202.919 347.482C202.991 347.373 203.026 347.267 203.025 347.166C203.032 347.071 202.992 346.995 202.906 346.939C202.437 346.633 201.652 346.751 200.553 347.293C199.893 347.621 199.268 347.965 198.676 348.326C198.092 348.692 197.635 349.018 197.304 349.303L196.565 349.925L195.791 349.42L199.126 346.43C199.178 346.386 199.294 346.284 199.477 346.124C199.672 345.961 199.82 345.802 199.922 345.645C200.121 345.341 200.095 345.107 199.845 344.943C199.642 344.811 199.193 344.892 198.5 345.187C197.807 345.481 197.068 345.863 196.283 346.332C195.506 346.806 194.932 347.2 194.559 347.515L193.82 348.136L193.046 347.631L196.394 344.649C196.817 344.257 197.092 343.962 197.219 343.767C197.291 343.658 197.328 343.565 197.333 343.49C197.337 343.415 197.296 343.349 197.21 343.293C196.812 343.033 195.982 343.384 194.721 344.344L194.532 344.121C196.006 342.987 197.056 342.624 197.681 343.032C198.143 343.333 198.111 343.886 197.586 344.691C197.499 344.824 197.314 345.032 197.03 345.314C196.745 345.597 196.519 345.79 196.352 345.892L196.376 345.958L196.685 345.792C197.475 345.349 198.185 345.003 198.814 344.756C199.451 344.514 199.922 344.492 200.227 344.691C200.829 345.083 200.888 345.651 200.404 346.394C200.296 346.558 200.102 346.771 199.82 347.033C199.546 347.3 199.309 347.518 199.108 347.689L199.121 347.747L199.476 347.561C200.253 347.12 200.965 346.788 201.613 346.564C202.268 346.345 202.811 346.375 203.241 346.656C203.475 346.808 203.596 347.026 203.601 347.308C203.619 347.587 203.509 347.911 203.269 348.278C203.157 348.45 202.996 348.646 202.786 348.866C202.581 349.078 202.404 349.23 202.255 349.322L200.366 350.58C200.27 350.641 200.153 350.726 200.015 350.836C199.884 350.951 199.788 351.056 199.727 351.15C199.655 351.259 199.62 351.365 199.621 351.466C199.622 351.566 199.666 351.645 199.752 351.701C200.018 351.874 200.404 351.837 200.912 351.588C201.419 351.339 201.912 351.037 202.39 350.68L202.578 350.903C201.954 351.399 201.352 351.758 200.772 351.982C200.205 352.202 199.745 352.198 199.394 351.969Z" fill="black"/>
<path d="M184.442 341.976C184.045 340.412 183.982 338.763 184.252 337.03C184.541 335.292 185.199 333.636 186.225 332.061C187.252 330.486 188.498 329.221 189.964 328.267C191.448 327.308 192.985 326.695 194.576 326.427L194.817 327.157C193.146 327.548 191.668 328.192 190.383 329.089C189.109 329.993 188.002 331.166 187.063 332.607C186.124 334.048 185.498 335.534 185.185 337.064C184.883 338.602 184.89 340.215 185.207 341.901L184.442 341.976ZM190.865 341.722C190.195 341.285 189.832 340.658 189.775 339.842C189.726 339.014 189.96 338.203 190.477 337.41C190.914 336.74 191.466 336.161 192.134 335.673C192.809 335.174 193.56 334.828 194.386 334.635C195.047 334.476 195.642 334.418 196.171 334.461C196.711 334.511 197.227 334.696 197.719 335.016C198.143 335.293 198.43 335.671 198.579 336.15C198.729 336.629 198.614 337.159 198.235 337.74C198.017 338.075 197.74 338.292 197.404 338.392C197.08 338.499 196.784 338.465 196.516 338.29C196.304 338.152 196.182 337.985 196.15 337.789C196.126 337.583 196.168 337.395 196.277 337.228C196.488 336.904 196.856 336.73 197.381 336.706C197.57 336.686 197.726 336.58 197.85 336.39C197.915 336.29 197.923 336.144 197.873 335.952C197.83 335.749 197.669 335.557 197.39 335.375C196.518 334.807 195.125 335.283 193.211 336.805C192.848 337.093 192.439 337.488 191.986 337.988C191.551 338.484 191.232 338.889 191.028 339.202C190.708 339.693 190.577 340.125 190.636 340.498C190.707 340.879 190.899 341.171 191.211 341.374C191.904 341.826 192.65 341.914 193.45 341.64C194.249 341.365 194.895 341.046 195.387 340.682L195.662 341.029C194.899 341.613 194.076 341.984 193.194 342.141C192.312 342.299 191.536 342.159 190.865 341.722ZM203.278 353.679C204.949 353.288 206.422 352.64 207.695 351.736C208.98 350.839 210.093 349.67 211.032 348.229C211.971 346.788 212.591 345.298 212.893 343.76C213.207 342.23 213.205 340.621 212.888 338.934L213.652 338.86C214.05 340.424 214.104 342.074 213.815 343.812C213.544 345.545 212.896 347.2 211.869 348.775C210.843 350.35 209.588 351.616 208.104 352.575C206.638 353.529 205.109 354.141 203.518 354.409L203.278 353.679Z" fill="black"/>
<path d="M176.407 183.293C176.235 183.406 176.053 183.443 175.859 183.403C175.665 183.363 175.511 183.258 175.398 183.086C175.28 182.907 175.243 182.724 175.288 182.538C175.328 182.344 175.433 182.191 175.605 182.078C175.784 181.959 175.966 181.923 176.153 181.967C176.341 181.999 176.495 182.105 176.613 182.284C176.726 182.455 176.763 182.638 176.723 182.832C176.691 183.021 176.586 183.174 176.407 183.293ZM179.768 191.105C179.558 191.244 179.317 191.269 179.045 191.18C178.782 191.085 178.527 190.851 178.28 190.477C178.167 190.306 178.056 190.088 177.949 189.823C177.836 189.551 177.762 189.32 177.727 189.131L177.326 186.896C177.308 186.785 177.273 186.646 177.219 186.48C177.173 186.309 177.119 186.177 177.058 186.084C176.986 185.975 176.903 185.9 176.81 185.861C176.725 185.817 176.64 185.823 176.554 185.879C176.289 186.054 176.166 186.426 176.184 186.996C176.21 187.56 176.291 188.133 176.428 188.713L176.148 188.798C175.947 188.036 175.86 187.344 175.886 186.723C175.912 186.102 176.1 185.675 176.451 185.444C176.654 185.31 176.889 185.295 177.158 185.397C177.434 185.494 177.691 185.722 177.927 186.08C178.041 186.251 178.156 186.477 178.274 186.757C178.386 187.03 178.455 187.252 178.48 187.426L178.882 189.661C178.899 189.772 178.931 189.913 178.977 190.084C179.03 190.25 179.088 190.38 179.15 190.473C179.222 190.582 179.304 190.657 179.397 190.696C179.49 190.735 179.58 190.726 179.665 190.67C179.93 190.495 180.05 190.125 180.024 189.561C179.998 188.997 179.916 188.424 179.779 187.844L180.059 187.759C180.265 188.529 180.355 189.225 180.329 189.846C180.306 190.454 180.119 190.874 179.768 191.105Z" fill="black"/>
<path d="M171.21 190.729C170.68 191.079 170.146 191.236 169.608 191.2C169.064 191.156 168.558 190.931 168.089 190.525C167.614 190.111 167.21 189.533 166.877 188.791C166.647 188.272 166.492 187.793 166.414 187.352C166.344 186.907 166.34 186.495 166.404 186.118C166.476 185.735 166.606 185.381 166.794 185.055C166.982 184.73 167.222 184.426 167.516 184.142C167.81 183.859 168.148 183.591 168.53 183.339L171.182 181.589L171.573 182.589L170.288 183.437C170.72 183.566 171.115 183.808 171.473 184.165C171.831 184.521 172.148 185.01 172.425 185.633C172.592 186.004 172.713 186.382 172.789 186.768C172.865 187.154 172.891 187.534 172.869 187.906C172.847 188.279 172.77 188.637 172.639 188.981C172.516 189.32 172.335 189.64 172.098 189.941C171.856 190.235 171.56 190.498 171.21 190.729ZM170.822 189.761C171.048 189.612 171.234 189.444 171.379 189.259C171.52 189.065 171.623 188.857 171.689 188.635C171.75 188.405 171.778 188.168 171.774 187.925C171.77 187.681 171.731 187.427 171.657 187.163C171.591 186.894 171.498 186.625 171.377 186.358C171.219 185.982 171.034 185.651 170.823 185.365C170.614 185.067 170.384 184.811 170.131 184.597C169.879 184.384 169.604 184.213 169.307 184.085L168.944 184.324C168.602 184.55 168.32 184.792 168.098 185.05C167.872 185.3 167.714 185.577 167.625 185.882C167.535 186.188 167.518 186.534 167.573 186.923C167.631 187.298 167.771 187.731 167.994 188.222C168.22 188.699 168.481 189.103 168.777 189.433C169.076 189.75 169.396 189.947 169.737 190.024C170.086 190.095 170.448 190.008 170.822 189.761Z" fill="black"/>
<path d="M198.851 178.935C198.531 179.145 198.208 179.241 197.882 179.221C197.564 179.197 197.211 179.111 196.823 178.964C196.529 178.857 196.286 178.793 196.094 178.774C195.911 178.75 195.749 178.784 195.609 178.877C195.445 178.985 195.347 179.1 195.316 179.221C195.292 179.337 195.347 179.497 195.48 179.699C195.547 179.801 195.621 179.853 195.701 179.856C195.812 179.872 195.901 179.897 195.969 179.931C196.031 179.957 196.082 180.001 196.123 180.064C196.185 180.157 196.214 180.261 196.211 180.375C196.203 180.481 196.137 180.575 196.012 180.657C195.879 180.744 195.751 180.779 195.627 180.76C195.505 180.729 195.406 180.654 195.329 180.537C195 180.039 194.837 179.487 194.84 178.881C194.837 178.268 195.016 177.641 195.376 177L196.349 175.017C196.649 174.405 196.827 173.734 196.882 173.004C196.945 172.269 196.812 171.652 196.483 171.154C196.21 170.741 195.874 170.46 195.473 170.31C195.068 170.153 194.62 170.237 194.129 170.56C193.841 170.751 193.606 171.023 193.426 171.377C193.254 171.725 193.154 172.082 193.126 172.447C193.093 172.804 193.141 173.08 193.27 173.275C193.439 173.532 193.59 173.616 193.723 173.529C193.77 173.498 193.816 173.434 193.864 173.336C193.937 173.209 194.012 173.12 194.09 173.069C194.261 172.956 194.423 172.921 194.576 172.966C194.728 173.011 194.856 173.111 194.959 173.267C195.093 173.469 195.134 173.694 195.084 173.939C195.034 174.185 194.892 174.385 194.658 174.539C194.448 174.678 194.191 174.713 193.889 174.644C193.589 174.563 193.336 174.366 193.13 174.054C192.837 173.61 192.689 173.132 192.686 172.62C192.691 172.102 192.81 171.621 193.043 171.177C193.283 170.727 193.598 170.374 193.987 170.117C194.719 169.634 195.428 169.446 196.114 169.552C196.794 169.651 197.337 170.008 197.743 170.624C198.057 171.099 198.187 171.617 198.132 172.179C198.078 172.74 197.935 173.26 197.702 173.738C197.477 174.21 197.198 174.719 196.864 175.264L195.929 176.77C195.66 177.193 195.486 177.565 195.407 177.886C195.331 178.193 195.331 178.406 195.408 178.523C195.626 178.379 196.001 178.26 196.532 178.167C196.905 178.088 197.236 178.004 197.523 177.915C197.811 177.826 198.08 177.699 198.329 177.534C198.633 177.334 198.862 177.088 199.016 176.796C199.178 176.499 199.226 176.182 199.16 175.845L199.027 175.161L199.249 175.015C199.562 175.759 199.719 176.505 199.72 177.253C199.717 177.994 199.427 178.554 198.851 178.935Z" fill="black"/>
<path d="M188.522 185.078C186.929 184.82 185.392 184.221 183.91 183.282C182.431 182.325 181.174 181.062 180.138 179.492C179.103 177.923 178.439 176.277 178.148 174.552C177.86 172.809 177.91 171.154 178.298 169.588L179.063 169.658C178.756 171.347 178.758 172.959 179.069 174.495C179.391 176.024 180.026 177.506 180.973 178.942C181.921 180.377 183.034 181.544 184.313 182.441C185.603 183.33 187.085 183.966 188.758 184.347L188.522 185.078ZM190.848 179.086C190.18 179.527 189.461 179.61 188.689 179.337C187.91 179.052 187.26 178.515 186.739 177.724C186.298 177.057 185.987 176.319 185.806 175.512C185.617 174.694 185.599 173.868 185.751 173.033C185.868 172.364 186.052 171.795 186.302 171.327C186.563 170.851 186.939 170.451 187.428 170.128C187.851 169.849 188.312 169.737 188.811 169.791C189.31 169.845 189.75 170.161 190.132 170.74C190.353 171.074 190.442 171.414 190.399 171.762C190.368 172.102 190.219 172.36 189.952 172.536C189.741 172.676 189.539 172.721 189.347 172.672C189.147 172.612 188.993 172.498 188.882 172.332C188.669 172.009 188.657 171.602 188.844 171.111C188.9 170.93 188.866 170.745 188.741 170.556C188.675 170.456 188.544 170.39 188.348 170.36C188.145 170.318 187.904 170.389 187.626 170.573C186.758 171.146 186.64 172.613 187.273 174.976C187.393 175.424 187.592 175.955 187.87 176.57C188.152 177.167 188.396 177.621 188.601 177.933C188.925 178.422 189.269 178.714 189.635 178.808C190.011 178.895 190.356 178.836 190.667 178.63C191.357 178.175 191.735 177.526 191.802 176.683C191.869 175.84 191.834 175.121 191.696 174.525L192.123 174.41C192.356 175.343 192.368 176.245 192.161 177.117C191.953 177.989 191.516 178.645 190.848 179.086ZM202.082 175.553C202.39 173.865 202.382 172.256 202.06 170.727C201.749 169.191 201.12 167.705 200.173 166.27C199.225 164.834 198.106 163.672 196.816 162.782C195.537 161.885 194.061 161.245 192.387 160.864L192.624 160.133C194.216 160.392 195.752 161 197.231 161.957C198.713 162.896 199.972 164.15 201.007 165.719C202.043 167.288 202.705 168.944 202.992 170.687C203.284 172.412 203.236 174.057 202.848 175.623L202.082 175.553Z" fill="black"/>
<path d="M161.065 124.558C160.92 124.703 160.748 124.776 160.55 124.776C160.352 124.776 160.181 124.703 160.036 124.558C159.884 124.406 159.811 124.235 159.818 124.043C159.818 123.845 159.89 123.674 160.036 123.528C160.187 123.377 160.359 123.304 160.55 123.311C160.742 123.304 160.913 123.377 161.065 123.528C161.21 123.674 161.283 123.845 161.283 124.043C161.29 124.235 161.217 124.406 161.065 124.558ZM165.926 131.537C165.748 131.715 165.517 131.788 165.233 131.755C164.956 131.715 164.659 131.537 164.342 131.22C164.197 131.075 164.045 130.884 163.887 130.646C163.722 130.402 163.603 130.191 163.53 130.013L162.689 127.904C162.649 127.798 162.586 127.67 162.501 127.518C162.421 127.36 162.342 127.241 162.263 127.162C162.171 127.069 162.075 127.013 161.976 126.993C161.884 126.967 161.801 126.99 161.728 127.063C161.504 127.287 161.458 127.676 161.59 128.231C161.728 128.779 161.923 129.323 162.174 129.864L161.917 130.003C161.567 129.297 161.342 128.637 161.243 128.023C161.144 127.409 161.243 126.954 161.54 126.657C161.712 126.485 161.94 126.422 162.223 126.469C162.514 126.508 162.811 126.68 163.114 126.983C163.26 127.129 163.418 127.327 163.59 127.577C163.755 127.822 163.867 128.026 163.926 128.191L164.768 130.3C164.807 130.405 164.867 130.537 164.946 130.696C165.032 130.848 165.114 130.963 165.193 131.042C165.286 131.135 165.381 131.191 165.48 131.21C165.579 131.23 165.665 131.204 165.738 131.131C165.962 130.907 166.005 130.521 165.866 129.973C165.728 129.425 165.533 128.881 165.282 128.34L165.54 128.201C165.896 128.914 166.124 129.577 166.223 130.191C166.322 130.791 166.223 131.24 165.926 131.537Z" fill="black"/>
<path d="M157.466 132.886C157.017 133.335 156.526 133.596 155.991 133.668C155.45 133.734 154.909 133.616 154.367 133.312C153.82 133.002 153.308 132.517 152.833 131.857C152.503 131.395 152.256 130.956 152.091 130.54C151.932 130.118 151.846 129.715 151.833 129.332C151.827 128.943 151.883 128.57 152.001 128.214C152.12 127.857 152.295 127.511 152.526 127.174C152.757 126.838 153.034 126.508 153.358 126.184L155.605 123.937L156.189 124.838L155.1 125.927C155.549 125.967 155.984 126.125 156.407 126.402C156.829 126.679 157.238 127.095 157.634 127.649C157.872 127.979 158.067 128.326 158.218 128.689C158.37 129.052 158.472 129.418 158.525 129.788C158.578 130.157 158.575 130.524 158.515 130.887C158.463 131.243 158.35 131.593 158.179 131.936C158.001 132.273 157.763 132.589 157.466 132.886ZM156.892 132.015C157.083 131.824 157.232 131.622 157.337 131.411C157.436 131.194 157.496 130.969 157.515 130.738C157.529 130.501 157.509 130.263 157.456 130.025C157.403 129.788 157.314 129.547 157.189 129.303C157.07 129.052 156.925 128.808 156.753 128.57C156.522 128.234 156.275 127.946 156.011 127.709C155.747 127.458 155.47 127.254 155.179 127.095C154.889 126.937 154.585 126.825 154.268 126.759L153.962 127.065C153.671 127.356 153.443 127.649 153.279 127.946C153.107 128.237 153.008 128.54 152.982 128.857C152.955 129.174 153.008 129.517 153.14 129.887C153.272 130.243 153.496 130.639 153.813 131.075C154.13 131.497 154.466 131.84 154.823 132.104C155.179 132.355 155.532 132.484 155.882 132.49C156.238 132.49 156.575 132.332 156.892 132.015Z" fill="black"/>
<path d="M179.067 117.525L179.987 116.605C180.086 116.506 180.142 116.41 180.155 116.318C180.175 116.219 180.152 116.11 180.086 115.991L176.443 109.635C176.417 109.781 176.361 109.955 176.275 110.16C176.182 110.358 176.103 110.516 176.037 110.635C175.971 110.754 175.928 110.837 175.909 110.883L175.681 111.328L175.414 111.2C175.75 110.586 176.001 109.985 176.166 109.398C176.331 108.797 176.331 108.17 176.166 107.517L176.473 107.21L180.987 115.09C181.027 115.156 181.056 115.199 181.076 115.219C181.129 115.272 181.185 115.295 181.244 115.288C181.304 115.268 181.37 115.222 181.442 115.149L182.413 114.179L182.65 114.575L179.304 117.921L179.067 117.525Z" fill="black"/>
<path d="M173.292 123.876C171.68 123.942 170.054 123.664 168.413 123.042C166.773 122.401 165.288 121.416 163.959 120.086C162.629 118.757 161.649 117.277 161.017 115.646C160.385 113.996 160.103 112.365 160.169 110.752L160.932 110.668C160.97 112.384 161.295 113.963 161.908 115.405C162.53 116.838 163.45 118.163 164.666 119.379C165.882 120.595 167.207 121.515 168.64 122.137C170.082 122.75 171.661 123.075 173.377 123.113L173.292 123.876ZM174.369 117.539C173.803 118.105 173.115 118.331 172.304 118.218C171.484 118.095 170.739 117.699 170.07 117.03C169.504 116.464 169.051 115.804 168.712 115.05C168.363 114.286 168.179 113.48 168.161 112.632C168.142 111.953 168.208 111.359 168.359 110.85C168.519 110.331 168.806 109.865 169.221 109.45C169.579 109.091 170.008 108.889 170.508 108.842C171.008 108.794 171.503 109.016 171.993 109.506C172.276 109.789 172.431 110.105 172.46 110.454C172.497 110.793 172.403 111.076 172.177 111.302C171.998 111.481 171.809 111.566 171.611 111.557C171.404 111.538 171.229 111.458 171.088 111.317C170.815 111.043 170.72 110.647 170.805 110.129C170.824 109.94 170.753 109.766 170.593 109.605C170.508 109.52 170.367 109.483 170.169 109.492C169.961 109.492 169.74 109.61 169.504 109.846C168.769 110.581 168.948 112.042 170.041 114.23C170.249 114.645 170.551 115.125 170.947 115.672C171.342 116.2 171.672 116.596 171.936 116.86C172.351 117.275 172.747 117.492 173.124 117.511C173.511 117.52 173.836 117.393 174.1 117.129C174.685 116.544 174.925 115.833 174.821 114.993C174.718 114.154 174.539 113.457 174.284 112.9L174.68 112.702C175.095 113.57 175.288 114.451 175.26 115.347C175.232 116.243 174.935 116.973 174.369 117.539ZM184.666 111.824C184.628 110.108 184.298 108.534 183.676 107.101C183.063 105.658 182.149 104.329 180.932 103.113C179.716 101.896 178.387 100.982 176.944 100.369C175.511 99.7468 173.937 99.4168 172.221 99.3791L172.306 98.6154C173.918 98.5494 175.544 98.837 177.185 99.4781C178.825 100.1 180.31 101.076 181.639 102.406C182.969 103.735 183.949 105.225 184.581 106.874C185.213 108.505 185.495 110.127 185.429 111.739L184.666 111.824Z" fill="black"/>
</svg>
